<?xml version="1.0" encoding="UTF-8"?>
<svg width="76px" height="50px" viewBox="0 0 76 50" version="1.1" xmlns="http://www.w3.org/2000/svg" xmlns:xlink="http://www.w3.org/1999/xlink">
    <!-- Generator: Sketch 46.2 (44496) - http://www.bohemiancoding.com/sketch -->
    <title>Logo_blue</title>
    <desc>Created with Sketch.</desc>
    <defs></defs>
    <g id="Web" stroke="none" stroke-width="1" fill="none" fill-rule="evenodd">
        <g id="Teste-07" transform="translate(-23.000000, -14.000000)" fill-rule="nonzero" fill="#04BBD6">
            <g id="Logo_blue" transform="translate(23.000000, 14.000000)">
                <g id="XMLID_140_" transform="translate(16.000000, 0.000000)" stroke-width="0.25" stroke="#04BBD6">
                    <g id="XMLID_143_">
                        <path d="M23.5725806,2.98536585 C21.3048387,2.98536585 19.5741935,5.26829268 19.5741935,8.19512195 C19.5741935,10.6536585 20.8274194,12.702439 22.6177419,13.2292683 C22.0209677,18.204878 17.6048387,22.1853659 12.3532258,22.1853659 C6.74354839,22.1853659 2.20806452,17.7365854 2.20806452,12.2341463 C2.20806452,6.73170732 6.74354839,2.28292683 12.3532258,2.28292683 C13.3677419,2.28292683 14.3822581,2.4 15.3370968,2.75121951 C15.8145161,2.86829268 16.3516129,2.63414634 16.4709677,2.16585366 C16.65,1.69756098 16.3516129,1.17073171 15.8741935,1.05365854 C14.7403226,0.702439024 13.5467742,0.526829268 12.3532258,0.526829268 C5.78870968,0.526829268 0.358064516,5.79512195 0.358064516,12.2341463 C0.358064516,18.7317073 5.72903226,24 12.3532258,24 C18.5596774,24 23.8112903,19.2585366 24.4080645,13.2878049 C26.2580645,12.7609756 27.5709677,10.7121951 27.5709677,8.19512195 C27.5709677,5.26829268 25.8403226,2.98536585 23.5725806,2.98536585 Z M23.6322581,11.5317073 L23.5725806,11.5317073 C22.4387097,11.4731707 21.4241935,9.95121951 21.4241935,8.13658537 C21.4241935,6.32195122 22.4387097,4.74146341 23.6322581,4.74146341 C24.8258065,4.74146341 25.8403226,6.32195122 25.8403226,8.13658537 C25.7806452,9.95121951 24.766129,11.5317073 23.6322581,11.5317073 Z" id="XMLID_144_"></path>
                    </g>
                    <g id="XMLID_141_" transform="translate(9.548387, 0.000000)">
                        <path d="M27.1532258,12.2341463 C27.1532258,18.7317073 21.7822581,24 15.2177419,24 C14.0241935,24 12.8306452,23.8243902 11.6967742,23.4731707 C11.2193548,23.3560976 10.9209677,22.8292683 11.1,22.3609756 C11.2790323,21.8926829 11.7564516,21.6 12.233871,21.7756098 C13.1887097,22.0682927 14.2032258,22.2439024 15.2177419,22.2439024 C20.8274194,22.2439024 25.3629032,17.795122 25.3629032,12.2926829 C25.3629032,6.7902439 20.8274194,2.34146341 15.2177419,2.34146341 C10.0258065,2.34146341 5.55,6.32195122 5.01290323,11.297561 C6.74354839,11.8243902 8.05645161,13.8731707 8.05645161,16.3317073 L8.05645161,19.5512195 C8.05645161,20.0780488 7.63870968,20.4292683 7.16129032,20.4292683 C6.68387097,20.4292683 6.26612903,20.0195122 6.26612903,19.5512195 L6.26612903,16.3317073 C6.26612903,14.9853659 5.72903226,13.8146341 5.01290323,13.2878049 L5.01290323,19.6097561 C5.01290323,20.1365854 4.59516129,20.4878049 4.11774194,20.4878049 C3.64032258,20.4878049 3.22258065,20.0780488 3.22258065,19.6097561 L3.22258065,13.2292683 C2.50645161,13.8146341 1.96935484,14.9853659 1.96935484,16.2731707 L1.96935484,19.4926829 C1.96935484,20.0195122 1.5516129,20.3707317 1.07419355,20.3707317 C0.596774194,20.3707317 0.179032258,19.9609756 0.179032258,19.4926829 L0.179032258,16.2731707 C0.179032258,13.7560976 1.49193548,11.7073171 3.34193548,11.1804878 C3.93870968,5.2097561 9.19032258,0.468292683 15.3967742,0.468292683 C21.7822581,0.468292683 27.1532258,5.73658537 27.1532258,12.2341463 Z" id="XMLID_142_"></path>
                    </g>
                </g>
                <g id="XMLID_136_">
                    <g id="XMLID_137_">
                        <path d="M16.4724138,0.117073171 C16.5896552,0.234146341 16.6482759,0.351219512 16.6482759,0.409756098 L16.6482759,1.28780488 C16.6482759,1.40487805 16.5896552,1.5804878 16.4724138,1.63902439 C16.3551724,1.69756098 16.237931,1.75609756 16.1206897,1.75609756 L2.11034483,1.75609756 L2.11034483,10.5365854 L12.1931034,10.5365854 C12.3103448,10.5365854 12.4275862,10.595122 12.5448276,10.7121951 C12.662069,10.8292683 12.7206897,10.9463415 12.7206897,11.004878 L12.7206897,11.9414634 C12.7206897,12.0585366 12.662069,12.1170732 12.6034483,12.2341463 C12.4862069,12.3512195 12.3103448,12.4097561 12.1931034,12.4097561 L2.11034483,12.4097561 L2.11034483,23.1804878 C2.11034483,23.4731707 1.99310345,23.6487805 1.7,23.6487805 L0.644827586,23.6487805 C0.410344828,23.6487805 0.175862069,23.4146341 0.175862069,23.1804878 L0.175862069,0.468292683 C0.175862069,0.351219512 0.234482759,0.234146341 0.351724138,0.117073171 C0.410344828,0.0585365854 0.527586207,0 0.644827586,0 L16.1206897,0 C16.237931,0 16.3551724,0.0585365854 16.4724138,0.117073171 Z" id="XMLID_138_"></path>
                    </g>
                </g>
                <g id="XMLID_132_" transform="translate(55.000000, 0.000000)">
                    <path d="M8.4,0 C10.2,0 11.88,0.234146341 13.38,0.76097561 C14.88,1.28780488 16.2,1.9902439 17.28,3.04390244 C18.36,4.03902439 19.2,5.26829268 19.8,6.7902439 C20.4,8.25365854 20.7,9.95121951 20.7,11.8829268 C20.7,13.8146341 20.4,15.5121951 19.8,16.9756098 C19.2,18.4390244 18.36,19.6682927 17.28,20.6634146 C16.2,21.6585366 14.94,22.4195122 13.38,22.9463415 C11.88,23.4731707 10.2,23.7073171 8.4,23.7073171 L0.78,23.7073171 C0.48,23.7073171 0.3,23.5902439 0.3,23.297561 L0.3,0.468292683 C0.3,0.175609756 0.48,0 0.78,0 L8.4,0 Z M8.76,21.8926829 C10.26,21.8926829 11.64,21.6585366 12.84,21.1902439 C14.04,20.7219512 15.12,20.0780488 15.96,19.2 C16.8,18.3219512 17.46,17.3268293 17.94,16.0390244 C18.42,14.8097561 18.66,13.404878 18.66,11.8243902 C18.66,10.2439024 18.42,8.83902439 17.94,7.6097561 C17.46,6.3804878 16.8,5.32682927 15.96,4.44878049 C15.12,3.57073171 14.04,2.92682927 12.84,2.51707317 C11.64,2.04878049 10.26,1.81463415 8.76,1.81463415 L2.22,1.81463415 L2.22,21.8341463 L8.76,21.8341463 L8.76,21.8926829 Z" id="XMLID_133_"></path>
                </g>
                <polyline id="XMLID_131_" points="7 38 7 36.2 7 35"></polyline>
                <g id="XMLID_110_" transform="translate(2.000000, 30.000000)">
                    <path d="M9.93391304,0.411764706 C9.99304348,0.470588235 10.0521739,0.529411765 10.1113043,0.588235294 C10.1704348,0.705882353 10.1704348,0.764705882 10.1113043,0.882352941 C10.1113043,0.941176471 10.0521739,1 10.0521739,1.11764706 C10.0521739,1.23529412 9.99304348,1.35294118 9.99304348,1.35294118 C9.93391304,1.58823529 9.75652174,1.64705882 9.57913043,1.58823529 C9.3426087,1.52941176 8.98782609,1.47058824 8.57391304,1.41176471 C8.16,1.35294118 7.68695652,1.29411765 7.27304348,1.29411765 C6.32695652,1.29411765 5.55826087,1.52941176 5.02608696,2 C4.49391304,2.47058824 4.19826087,3.23529412 4.19826087,4.35294118 L4.19826087,6.11764706 L8.45565217,6.11764706 C8.51478261,6.11764706 8.63304348,6.17647059 8.69217391,6.23529412 C8.75130435,6.29411765 8.81043478,6.41176471 8.81043478,6.52941176 L8.81043478,6.94117647 C8.81043478,7.05882353 8.75130435,7.11764706 8.69217391,7.17647059 C8.63304348,7.23529412 8.51478261,7.29411765 8.45565217,7.29411765 L4.13913043,7.29411765 L4.13913043,19.1176471 C4.13913043,19.2352941 4.08,19.2941176 4.02086957,19.3529412 C3.96173913,19.4117647 3.84347826,19.4705882 3.78434783,19.4705882 L3.07478261,19.4705882 C2.83826087,19.4705882 2.66086957,19.3529412 2.66086957,19.1176471 L2.66086957,7.35294118 L0.709565217,7.35294118 C0.473043478,7.35294118 0.354782609,7.23529412 0.354782609,7 L0.354782609,6.58823529 C0.354782609,6.47058824 0.413913043,6.41176471 0.473043478,6.29411765 C0.532173913,6.23529412 0.650434783,6.17647059 0.709565217,6.17647059 L2.66086957,6.17647059 L2.66086957,4.58823529 C2.66086957,3.17647059 3.07478261,2.11764706 3.84347826,1.29411765 C4.61217391,0.470588235 5.79478261,0.0588235294 7.27304348,0.0588235294 C7.86434783,0.0588235294 8.39652174,0.117647059 8.81043478,0.176470588 C9.22434783,0.235294118 9.57913043,0.294117647 9.93391304,0.411764706 Z" id="XMLID_129_"></path>
                    <path d="M16.3791304,5.82352941 C17.3252174,5.82352941 18.2121739,6 18.9808696,6.35294118 C19.8086957,6.70588235 20.4591304,7.17647059 21.0504348,7.82352941 C21.6417391,8.47058824 22.1147826,9.17647059 22.4695652,10.0588235 C22.8243478,10.9411765 23.0017391,11.8823529 23.0017391,12.8823529 C23.0017391,13.9411765 22.8243478,14.8823529 22.4695652,15.7058824 C22.1147826,16.5882353 21.6417391,17.2941176 21.0504348,17.9411765 C20.4591304,18.5882353 19.7495652,19.0588235 18.9808696,19.3529412 C18.1530435,19.7058824 17.3252174,19.8823529 16.3791304,19.8823529 C15.4330435,19.8823529 14.546087,19.7058824 13.7182609,19.3529412 C12.8904348,19 12.24,18.5294118 11.6486957,17.9411765 C11.0573913,17.3529412 10.5843478,16.5882353 10.2886957,15.7647059 C9.93391304,14.8823529 9.81565217,13.9411765 9.81565217,12.9411765 C9.81565217,11.8823529 9.99304348,10.9411765 10.2886957,10.1176471 C10.6434783,9.23529412 11.0573913,8.52941176 11.6486957,7.88235294 C12.24,7.23529412 12.9495652,6.76470588 13.7182609,6.41176471 C14.546087,6 15.4330435,5.82352941 16.3791304,5.82352941 Z M16.3791304,18.5294118 C17.0886957,18.5294118 17.7982609,18.4117647 18.3895652,18.1176471 C19.04,17.8235294 19.5721739,17.4705882 20.0452174,17 C20.5182609,16.5294118 20.8730435,15.9411765 21.1095652,15.2352941 C21.346087,14.5294118 21.4643478,13.7647059 21.4643478,12.8823529 C21.4643478,12 21.346087,11.2352941 21.1095652,10.5294118 C20.8730435,9.82352941 20.5182609,9.23529412 20.0452174,8.70588235 C19.5721739,8.23529412 19.04,7.82352941 18.3895652,7.58823529 C17.7391304,7.29411765 17.0886957,7.17647059 16.3791304,7.17647059 C15.6695652,7.17647059 14.96,7.29411765 14.3686957,7.58823529 C13.7773913,7.88235294 13.2452174,8.23529412 12.7721739,8.70588235 C12.2991304,9.17647059 11.9443478,9.82352941 11.7078261,10.5294118 C11.4713043,11.2352941 11.293913,12 11.293913,12.8823529 C11.293913,13.7647059 11.4121739,14.5294118 11.7078261,15.2352941 C11.9443478,15.9411765 12.2991304,16.5294118 12.7721739,17 C13.2452174,17.4705882 13.7773913,17.8823529 14.3686957,18.1176471 C15.0191304,18.4117647 15.6695652,18.5294118 16.3791304,18.5294118 Z" id="XMLID_126_"></path>
                    <path d="M34.8278261,6.11764706 C35.0052174,6.17647059 35.1234783,6.35294118 35.1234783,6.47058824 C35.1234783,6.52941176 35.1234783,6.64705882 35.1234783,6.82352941 C35.1234783,6.94117647 35.0643478,7.11764706 35.0643478,7.23529412 C35.0052174,7.35294118 35.0052174,7.47058824 34.946087,7.52941176 C34.8278261,7.64705882 34.7686957,7.64705882 34.6504348,7.64705882 C34.6504348,7.64705882 34.5913043,7.64705882 34.5913043,7.64705882 C34.5913043,7.64705882 34.5913043,7.64705882 34.5321739,7.64705882 C34.3547826,7.58823529 34.1182609,7.47058824 33.8226087,7.41176471 C33.5269565,7.35294118 33.2313043,7.29411765 32.9356522,7.29411765 C32.3443478,7.29411765 31.7530435,7.47058824 31.2208696,7.70588235 C30.6886957,8 30.2156522,8.41176471 29.8017391,8.94117647 C29.3878261,9.47058824 29.0921739,10.1176471 28.7965217,10.8823529 C28.56,11.6470588 28.4417391,12.4705882 28.4417391,13.4117647 L28.4417391,19.1176471 C28.4417391,19.3529412 28.3234783,19.4705882 28.0869565,19.4705882 L27.3182609,19.4705882 C27.0817391,19.4705882 26.9634783,19.3529412 26.9634783,19.1176471 L26.9634783,6.47058824 C26.9634783,6.23529412 27.0817391,6.11764706 27.3182609,6.11764706 L27.9686957,6.11764706 C28.0869565,6.11764706 28.146087,6.17647059 28.2052174,6.23529412 C28.2643478,6.29411765 28.3234783,6.41176471 28.3234783,6.52941176 L28.3234783,7.23529412 L28.3234783,8.76470588 L28.56,8.76470588 C28.973913,7.94117647 29.5652174,7.23529412 30.3930435,6.64705882 C31.2208696,6.05882353 32.1078261,5.82352941 33.1721739,5.82352941 C33.4086957,5.82352941 33.7043478,5.88235294 34,5.94117647 C34.3547826,6 34.5913043,6.05882353 34.8278261,6.11764706 Z" id="XMLID_118_"></path>
                    <path d="M45.2347826,6.70588235 C45.7669565,6.41176471 46.4173913,6.23529412 47.0678261,6.05882353 C47.7182609,5.88235294 48.6052174,5.82352941 49.6104348,5.82352941 C50.2017391,5.82352941 50.7930435,5.94117647 51.3843478,6.11764706 C51.9756522,6.29411765 52.5078261,6.58823529 52.9217391,7 C53.3947826,7.41176471 53.7495652,7.94117647 54.0452174,8.58823529 C54.3408696,9.23529412 54.4591304,10.0588235 54.4591304,11 L54.4591304,19.1764706 C54.4591304,19.4117647 54.3408696,19.5294118 54.1043478,19.5294118 L53.453913,19.5294118 C53.2173913,19.5294118 53.04,19.4117647 53.04,19.1176471 L53.04,17.3529412 L52.8034783,17.3529412 C52.626087,17.6470588 52.3304348,18 52.0347826,18.2941176 C51.7391304,18.5882353 51.3252174,18.8823529 50.9704348,19.1176471 C50.5565217,19.3529412 50.1426087,19.5294118 49.6695652,19.6470588 C49.1965217,19.7647059 48.7234783,19.8823529 48.2504348,19.8823529 C47.6,19.8823529 47.0086957,19.7647059 46.4173913,19.5882353 C45.8852174,19.4117647 45.4121739,19.1176471 44.9982609,18.8235294 C44.5843478,18.4705882 44.2886957,18.0588235 44.0521739,17.6470588 C43.8156522,17.1764706 43.6973913,16.6470588 43.6973913,16.1176471 C43.6973913,15.1764706 43.933913,14.4117647 44.3478261,13.8823529 C44.7617391,13.2941176 45.3530435,12.8823529 46.1217391,12.5294118 C46.8313043,12.2352941 47.6591304,12 48.6052174,11.8823529 C49.5513043,11.7647059 50.4973913,11.7058824 51.5026087,11.7058824 L52.9808696,11.7058824 C52.9808696,11.7058824 52.9808696,11.6470588 52.9808696,11.5882353 C52.9808696,11.5294118 52.9808696,11.4117647 52.9808696,11.3529412 C52.9808696,11.2941176 52.9808696,11.1764706 52.9808696,11.1176471 C52.9808696,11.0588235 52.9808696,11 52.9808696,11 C52.9808696,9.88235294 52.6852174,8.94117647 52.093913,8.29411765 C51.5026087,7.64705882 50.4973913,7.29411765 49.1373913,7.29411765 C48.3686957,7.29411765 47.6591304,7.35294118 47.1269565,7.52941176 C46.5356522,7.70588235 46.1217391,7.82352941 45.826087,8 C45.7078261,8.05882353 45.6486957,8.05882353 45.5304348,8.05882353 C45.4713043,8.05882353 45.3530435,8 45.3530435,7.94117647 C45.293913,7.88235294 45.293913,7.76470588 45.2347826,7.58823529 C45.1756522,7.41176471 45.1165217,7.29411765 45.1165217,7.23529412 C45.0573913,7.17647059 45.0573913,7.05882353 45.1165217,7 C45.0573913,6.82352941 45.1165217,6.76470588 45.2347826,6.70588235 Z M53.04,12.8235294 L51.9165217,12.8235294 C50.9704348,12.8235294 50.1426087,12.8823529 49.3147826,12.9411765 C48.4869565,13 47.8365217,13.1764706 47.2452174,13.4117647 C46.653913,13.6470588 46.1808696,13.9411765 45.826087,14.3529412 C45.4713043,14.7647059 45.293913,15.2352941 45.293913,15.8823529 C45.293913,16.7058824 45.5895652,17.3529412 46.1808696,17.8235294 C46.7721739,18.2941176 47.6,18.4705882 48.6643478,18.4705882 C49.1373913,18.4705882 49.6104348,18.3529412 50.0834783,18.1764706 C50.6156522,18 51.0886957,17.7058824 51.5026087,17.3529412 C51.9165217,17 52.2713043,16.5882353 52.5669565,16.1176471 C52.8626087,15.6470588 52.9808696,15.1176471 52.9808696,14.5294118 L52.9808696,12.8235294 L53.04,12.8235294 Z" id="XMLID_115_"></path>
                    <path d="M60.8452174,0.647058824 L60.8452174,19.1764706 C60.8452174,19.4117647 60.7269565,19.5294118 60.4904348,19.5294118 L59.7217391,19.5294118 C59.4852174,19.5294118 59.3669565,19.4117647 59.3669565,19.1764706 L59.3669565,0.647058824 C59.3669565,0.411764706 59.4852174,0.294117647 59.7217391,0.294117647 L60.4904348,0.294117647 C60.7269565,0.294117647 60.8452174,0.411764706 60.8452174,0.647058824 Z" id="XMLID_113_"></path>
                    <path d="M67.6452174,0.647058824 L67.6452174,19.1764706 C67.6452174,19.4117647 67.5269565,19.5294118 67.2904348,19.5294118 L66.5217391,19.5294118 C66.2852174,19.5294118 66.1669565,19.4117647 66.1669565,19.1764706 L66.1669565,0.647058824 C66.1669565,0.411764706 66.2852174,0.294117647 66.5217391,0.294117647 L67.2904348,0.294117647 C67.5269565,0.294117647 67.6452174,0.411764706 67.6452174,0.647058824 Z" id="XMLID_111_"></path>
                </g>
            </g>
        </g>
    </g>
</svg>