<svg id="Layer_3" data-name="Layer 3" xmlns="http://www.w3.org/2000/svg" viewBox="0 0 51.47 28.89"><defs><style>.cls-1{fill:#f7941d;}</style></defs><title>Artboard 1</title><path class="cls-1" d="M51.4,0h-.79Q29.53,0,8.45,0A1.79,1.79,0,0,0,7.33.49C5.06,2.68,2.84,4.93.59,7.13A1.83,1.83,0,0,0,0,8.59q0,9.6,0,19.2v1.06l.61,0q21.21,0,42.43,0a1.65,1.65,0,0,0,1.05-.44Q47.59,25,51,21.57a1.81,1.81,0,0,0,.44-1.14q0-9.77,0-19.55C51.47.6,51.43.33,51.4,0ZM18.56,21.18H15.45V16.65H11.07v4.53H7.89V7.7h3.18v6.08h4.38V7.7h3.12Zm11,0-3.09-4.63H24.15v4.63H21V7.7h9.16a1.64,1.64,0,0,1,1.14.42,1.31,1.31,0,0,1,.46,1v6a1.34,1.34,0,0,1-.46,1,1.64,1.64,0,0,1-1.14.42l3.08,4.63ZM43.58,10.54H40.46V21.18H37.29V10.54H34.17V7.7h9.41Z"/><rect class="cls-1" x="24.15" y="10.57" width="4.41" height="3.12"/></svg>