<svg xmlns="http://www.w3.org/2000/svg" xmlns:xlink="http://www.w3.org/1999/xlink" width="342" height="146" viewBox="0 0 342 146"><defs><path id="a" d="M0 0h342v146h-342z"/></defs><clipPath id="b"><use xlink:href="#a" overflow="visible"/></clipPath><path clip-path="url(#b)" fill="#C44B13" d="M.059 114.816c0 2.129 1.074 3.203 3.203 3.203h23.265c2.129 0 3.203-1.074 3.203-3.203v-86.152h-29.671v86.152zm48.554 0c0 .883.317 1.645.93 2.277.609.609 1.367.926 2.273.926h21.243c.906 0 1.625-.316 2.191-.926.57-.633.844-1.395.844-2.277v-86.152h-27.481v86.152zm46.364-86.152v86.152c0 .883.273 1.645.843 2.277.571.609 1.285.926 2.192.926h23.433c.907 0 1.664-.316 2.278-.926.609-.633.925-1.395.925-2.277v-86.152h-29.671"/><path clip-path="url(#b)" fill="#2A394C" d="M175.746 3.199v114.813h-26.469c-2.14 0-3.199-1.063-3.199-3.203v-111.61c0-2.129 1.059-3.199 3.199-3.199h23.27c2.129 0 3.199 1.07 3.199 3.199"/><path clip-path="url(#b)" fill="#ECC10C" d="M273.422 3.199v114.813h-26.473c-2.137 0-3.199-1.063-3.199-3.203v-111.61c0-2.129 1.063-3.199 3.199-3.199h23.27c2.133 0 3.203 1.07 3.203 3.199M342.879 3.199v114.813h-26.469c-2.141 0-3.199-1.063-3.199-3.203v-111.61c0-2.129 1.059-3.199 3.199-3.199h23.27c2.129 0 3.199 1.07 3.199 3.199"/><path fill="#822912" d="M124.648 19.699v8.922h-124.589v-25.414c0-2.145 1.078-3.199 3.207-3.199h101.656c2.699 0 5.25.527 7.676 1.601 2.422 1.051 4.488 2.461 6.238 4.207 1.746 1.723 3.137 3.805 4.211 6.227 1.078 2.398 1.601 4.965 1.601 7.656"/><path fill="#385B7D" d="M225.145 92.559v22.25c0 .902-.285 1.66-.844 2.273-.563.625-1.293.93-2.195.93h-46.359v-28.657h46.359c.902 0 1.633.305 2.195.918.558.625.844 1.383.844 2.286"/><defs><path id="c" d="M0 0h342v146h-342z"/></defs><clipPath id="d"><use xlink:href="#c" overflow="visible"/></clipPath><path clip-path="url(#d)" fill="#FEE502" d="M273.422 44.164h39.785v28.664h-39.785z"/><path clip-path="url(#d)" fill="#4D4C4E" d="M19.016 131.227l.125.438c.05.18.078.336.078.469v14.188c0 .148-.047.266-.141.359-.094.094-.215.141-.359.141h-3.61c-.136 0-.25-.047-.343-.141-.086-.094-.125-.211-.125-.359v-13.281h-2.907v13.281c0 .148-.046.266-.14.359-.086.094-.196.141-.328.141h-3.282c-.136 0-.257-.047-.359-.141-.094-.094-.141-.211-.141-.359v-13.281h-2.906v13.281c0 .336-.168.5-.5.5h-3.578c-.336 0-.5-.164-.5-.5v-17.203c0-.133.047-.25.141-.344.093-.102.211-.156.359-.156h15.188c.132 0 .289.027.468.078.188.043.336.09.453.141l2.407 2.389zm19.269-.032c.051.125.098.281.141.469.039.18.062.336.062.469v14.188c0 .148-.047.262-.14.344-.094.086-.215.125-.36.125h-3.609c-.137 0-.25-.039-.344-.125-.086-.082-.125-.195-.125-.344v-4.672c0-.133-.047-.242-.14-.328-.094-.094-.215-.141-.36-.141h-5.14c-.137 0-.258.047-.36.141-.094.086-.14.195-.14.328v4.672c0 .148-.043.262-.125.344-.086.086-.2.125-.344.125h-3.61c-.136 0-.257-.039-.359-.125-.094-.082-.141-.195-.141-.344v-14.266l.079-.438c.039-.156.085-.297.14-.422l2.391-2.391c.125-.051.269-.098.437-.141.176-.039.332-.063.469-.063h8.25c.133 0 .289.023.469.063.187.043.336.09.453.141l2.406 2.391zm-4.375 1.485h-6.14v4.594h6.14v-4.594zm20.496-4.063c.145 0 .266.055.36.156.093.094.14.211.14.344v14.188c0 .148-.023.309-.062.484-.043.168-.09.313-.141.438l-2.406 2.391c-.117.063-.266.117-.453.156-.18.031-.336.047-.469.047h-6.875c-.137 0-.293-.016-.469-.047-.168-.039-.312-.094-.437-.156l-2.391-2.391c-.074-.125-.125-.27-.156-.438-.031-.176-.047-.336-.047-.484v-5.094c0-.133.047-.25.141-.344.093-.094.207-.141.343-.141h3.594c.133 0 .25.047.344.141.094.094.14.211.14.344v3.719c0 .137.047.258.141.359.102.094.223.141.359.141h3.766c.145 0 .266-.047.36-.141.093-.102.14-.223.14-.359v-12.813c0-.133.039-.25.125-.344.094-.102.207-.156.344-.156h3.609zm19.567 2.61c.05.117.097.262.14.438.039.18.063.336.063.469v11.172c0 .148-.024.309-.063.484-.043.168-.09.313-.14.438l-2.391 2.391c-.125.063-.281.117-.469.156-.179.031-.336.047-.468.047h-8.25c-.137 0-.293-.016-.469-.047-.168-.039-.313-.094-.438-.156l-2.39-2.391c-.075-.125-.125-.27-.157-.438-.031-.176-.046-.336-.046-.484v-11.172c0-.133.015-.289.046-.469.032-.176.082-.32.157-.438l2.39-2.391c.125-.051.27-.098.438-.141.176-.051.332-.078.469-.078h8.25c.132 0 .289.027.468.078.188.043.344.09.469.141l2.391 2.391zm-4.391 1.812h-6.109v9.391h6.109v-9.391zm24.195 13.359c.063.125.067.23.016.313-.055.074-.148.109-.281.109h-4.141c-.137 0-.277-.035-.422-.109-.137-.082-.234-.188-.297-.313l-2.922-4.938c-.031-.063-.089-.094-.171-.094h-2.938c-.094 0-.141.043-.141.125v4.828c0 .336-.164.5-.484.5h-3.594c-.336 0-.5-.164-.5-.5v-17.203c0-.133.047-.25.141-.344.102-.102.223-.156.359-.156h11.266c.133 0 .289.027.469.078.187.043.343.09.468.141l2.391 2.391c.051.117.098.262.141.438.039.18.062.336.062.469v5.672c0 .105-.027.23-.078.375-.055.148-.117.281-.187.406l-2.391 2.438 3.234 5.374zm-5.187-13.546h-6.281v4.422h6.281v-4.422zm29.594 9.546c.132 0 .242.047.328.141.093.094.14.215.14.359v3.422c0 .148-.047.266-.14.359-.086.094-.196.141-.328.141h-11.235c-.336 0-.5-.164-.5-.5v-17.203c0-.332.164-.5.5-.5h3.578c.332 0 .5.168.5.5v12.813c0 .137.047.25.141.344.094.086.211.125.359.125h6.657zm7.562-9.546c-.086 0-.125.047-.125.141v2.828c0 .074.039.109.125.109h7.422c.133 0 .25.047.344.141.093.094.14.211.14.344v2.609c0 .324-.164.484-.484.484h-7.422c-.086 0-.125.047-.125.141v2.797c0 .094.039.141.125.141h8.719c.133 0 .25.047.344.141.093.094.14.211.14.344v3.25c0 .148-.047.266-.14.359-.094.094-.211.141-.344.141h-9.906c-.149 0-.309-.016-.485-.047-.168-.039-.308-.094-.422-.156l-2.406-2.391c-.062-.125-.117-.27-.156-.438-.031-.176-.047-.336-.047-.484v-11.172c0-.133.016-.289.047-.469.039-.176.094-.32.156-.438l2.406-2.391c.114-.051.254-.098.422-.141.176-.051.336-.078.485-.078h9.906c.133 0 .25.055.344.156.093.094.14.211.14.344v3.266c0 .148-.047.262-.14.344-.094.086-.211.125-.344.125h-8.719zm28.348-1.657c.051.125.097.281.14.469.039.18.063.336.063.469v14.188c0 .148-.047.262-.141.344-.094.086-.215.125-.359.125h-3.609c-.137 0-.25-.039-.344-.125-.086-.082-.125-.195-.125-.344v-4.672c0-.133-.047-.242-.141-.328-.094-.094-.215-.141-.359-.141h-5.141c-.137 0-.258.047-.359.141-.094.086-.141.195-.141.328v4.672c0 .148-.043.262-.125.344-.086.086-.199.125-.344.125h-3.609c-.137 0-.258-.039-.359-.125-.094-.082-.141-.195-.141-.344v-14.266l.078-.438c.039-.156.086-.297.141-.422l2.39-2.391c.125-.051.27-.098.438-.141.176-.039.332-.063.469-.063h8.25c.132 0 .289.023.468.063.188.043.336.09.454.141l2.406 2.391zm-4.375 1.485h-6.141v4.594h6.141v-4.594zm23.336 4.203c.133 0 .25.055.344.156.094.094.141.211.141.344v5.922c0 .148-.023.309-.063.484-.043.168-.09.313-.141.438l-2.391 2.391c-.125.063-.281.117-.468.156-.18.031-.336.047-.469.047h-8.25c-.137 0-.293-.016-.469-.047-.168-.039-.312-.094-.437-.156l-2.391-2.391c-.074-.125-.125-.27-.156-.438-.032-.176-.047-.336-.047-.484v-11.172c0-.133.015-.289.047-.469.031-.176.082-.32.156-.438l2.391-2.391c.125-.051.269-.098.437-.141.176-.051.332-.078.469-.078h10.281c.133 0 .25.055.344.156.094.094.141.211.141.344v3.422c0 .148-.047.266-.141.359s-.211.141-.344.141h-8.719c-.136 0-.25.047-.343.141-.094.086-.141.195-.141.328v8.422c0 .137.047.258.141.359.093.094.207.141.343.141h5.157c.132 0 .242-.047.328-.141.093-.102.14-.223.14-.359v-4.547c0-.133.047-.25.141-.344.094-.102.207-.156.344-.156h3.625zm19.09-8.266c.145 0 .266.055.359.156.094.094.141.211.141.344v14.266h-.031c0 .148-.016.297-.047.453s-.074.289-.125.391l-2.406 2.391c-.117.063-.266.117-.453.156-.18.031-.336.047-.469.047h-8.25c-.137 0-.293-.016-.469-.047-.168-.039-.313-.094-.438-.156l-2.391-2.391c-.074-.125-.133-.27-.172-.438-.031-.176-.047-.336-.047-.484v-14.188c0-.133.047-.25.141-.344.102-.102.223-.156.359-.156h3.594c.133 0 .25.055.344.156.094.094.141.211.141.344v12.813c0 .137.047.258.141.359.102.094.223.141.359.141h5.141c.145 0 .258-.047.344-.141.082-.102.125-.223.125-.359v-12.813c0-.133.047-.25.141-.344.102-.102.223-.156.359-.156h3.609zm9.187 4.235c-.086 0-.125.047-.125.141v2.828c0 .074.039.109.125.109h7.422c.133 0 .25.047.344.141s.141.211.141.344v2.609c0 .324-.164.484-.484.484h-7.422c-.086 0-.125.047-.125.141v2.797c0 .094.039.141.125.141h8.719c.133 0 .25.047.344.141s.141.211.141.344v3.25c0 .148-.047.266-.141.359s-.211.141-.344.141h-9.906c-.148 0-.309-.016-.484-.047-.168-.039-.309-.094-.422-.156l-2.406-2.391c-.063-.125-.117-.27-.156-.438-.031-.176-.047-.336-.047-.484v-11.172c0-.133.016-.289.047-.469.039-.176.094-.32.156-.438l2.406-2.391c.113-.051.254-.098.422-.141.176-.051.336-.078.484-.078h9.906c.133 0 .25.055.344.156.094.094.141.211.141.344v3.266c0 .148-.047.262-.141.344-.094.086-.211.125-.344.125h-8.72zm36.883-4.235c.133 0 .25.055.344.156.102.094.156.211.156.344v17.203c0 .148-.055.266-.156.359-.094.094-.211.141-.344.141h-3.609c-.148 0-.266-.047-.359-.141s-.141-.211-.141-.359v-6c0-.133-.047-.242-.141-.328-.086-.094-.195-.141-.328-.141h-5.141c-.148 0-.266.047-.359.141-.094.086-.141.195-.141.328v6c0 .336-.168.5-.5.5h-3.578c-.336 0-.5-.164-.5-.5v-17.203c0-.332.164-.5.5-.5h3.578c.332 0 .5.168.5.5v5.828c0 .324.164.484.5.484h5.141c.133 0 .242-.047.328-.141.094-.094.141-.207.141-.344v-5.828c0-.133.047-.25.141-.344.094-.102.211-.156.359-.156h3.609zm19.594 2.578c.051.125.098.281.141.469.039.18.063.336.063.469v14.188c0 .148-.047.262-.141.344-.094.086-.215.125-.359.125h-3.609c-.137 0-.25-.039-.344-.125-.086-.082-.125-.195-.125-.344v-4.672c0-.133-.047-.242-.141-.328-.094-.094-.215-.141-.359-.141h-5.141c-.137 0-.258.047-.359.141-.094.086-.141.195-.141.328v4.672c0 .148-.043.262-.125.344-.086.086-.199.125-.344.125h-3.609c-.137 0-.258-.039-.359-.125-.094-.082-.141-.195-.141-.344v-14.266l.078-.438c.039-.156.086-.297.141-.422l2.391-2.391c.125-.051.27-.098.438-.141.176-.039.332-.063.469-.063h8.25c.133 0 .289.023.469.063.188.043.336.09.453.141l2.404 2.391zm-4.375 1.485h-6.141v4.594h6.141v-4.594zm13.586.359c-.148 0-.266.047-.359.141-.094.086-.141.195-.141.328v8.422c0 .137.047.258.141.359.094.094.211.141.359.141h8.344c.133 0 .25.043.344.125.094.086.141.199.141.344v3.422c0 .148-.047.266-.141.359s-.211.141-.344.141h-9.906c-.148 0-.309-.016-.484-.047-.168-.039-.309-.094-.422-.156l-2.406-2.391c-.063-.125-.117-.27-.156-.438-.031-.176-.047-.336-.047-.484v-11.172c0-.133.016-.289.047-.469.039-.176.094-.32.156-.438l2.406-2.391.359-.141c.133-.051.238-.078.313-.078h10.141c.133 0 .25.055.344.156.094.094.141.211.141.344v3.422c0 .148-.047.266-.141.359s-.211.141-.344.141h-8.345zm23.253 3.25c-.055.055-.059.117-.016.188l6.078 9.922c.07.125.082.23.031.313-.055.074-.152.109-.297.109h-4.313c-.137 0-.277-.035-.422-.109-.137-.082-.234-.188-.297-.313l-3.938-7.094c-.055-.082-.094-.094-.125-.031l-2.156 2.375c-.086.086-.156.211-.219.375-.063.168-.094.32-.094.453v3.844c0 .336-.168.5-.5.5h-3.578c-.336 0-.5-.164-.5-.5v-17.203c0-.332.164-.5.5-.5h3.578c.332 0 .5.168.5.5v7.719l6.703-7.859c.094-.094.219-.176.375-.25.156-.07.301-.109.438-.109h4.313c.133 0 .211.039.234.109.031.074.004.156-.078.25l-6.217 7.311zm13.969 10.031c0 .336-.168.5-.5.5h-3.578c-.336 0-.5-.164-.5-.5v-17.203c0-.332.164-.5.5-.5h3.578c.332 0 .5.168.5.5v17.203zm19.149-15.093c.051.117.098.262.141.438.051.18.078.336.078.469v14.188c0 .148-.055.266-.156.359-.094.094-.211.141-.344.141h-3.61c-.148 0-.266-.047-.359-.141s-.141-.212-.141-.361v-12.813c0-.133-.047-.242-.141-.328-.086-.094-.195-.141-.328-.141h-5.141c-.148 0-.266.047-.359.141-.094.086-.141.195-.141.328v12.813c0 .336-.168.5-.5.5h-3.578c-.336 0-.5-.164-.5-.5v-17.203c0-.133.047-.25.141-.344.094-.102.211-.156.359-.156h11.25c.145 0 .305.027.484.078.188.043.336.09.453.141l2.392 2.391zm19 5.656c.133 0 .25.055.344.156.094.094.141.211.141.344v5.922c0 .148-.023.309-.063.484-.043.168-.09.313-.141.438l-2.391 2.391c-.125.063-.281.117-.469.156-.18.031-.336.047-.469.047h-8.25c-.137 0-.293-.016-.469-.047-.168-.039-.313-.094-.438-.156l-2.391-2.391c-.074-.125-.125-.27-.156-.438-.031-.176-.047-.336-.047-.484v-11.172c0-.133.016-.289.047-.469.031-.176.082-.32.156-.438l2.391-2.391c.125-.051.27-.098.438-.141.176-.051.332-.078.469-.078h10.281c.133 0 .25.055.344.156.094.094.141.211.141.344v3.422c0 .148-.047.266-.141.359s-.211.141-.344.141h-8.719c-.137 0-.25.047-.344.141-.094.086-.141.195-.141.328v8.422c0 .137.047.258.141.359.094.094.207.141.344.141h5.156c.133 0 .242-.047.328-.141.094-.102.141-.223.141-.359v-4.547c0-.133.047-.25.141-.344.094-.102.207-.156.344-.156h3.626zm0 0"/></svg>