<?xml version="1.0" standalone="no"?>
<!DOCTYPE svg PUBLIC "-//W3C//DTD SVG 20010904//EN"
 "http://www.w3.org/TR/2001/REC-SVG-20010904/DTD/svg10.dtd">
<svg version="1.0" xmlns="http://www.w3.org/2000/svg"
 width="491.000000pt" height="266.000000pt" viewBox="0 0 491.000000 266.000000"
 preserveAspectRatio="xMidYMid meet">
<metadata>
Created by potrace 1.11, written by Peter Selinger 2001-2013
</metadata>
<g transform="translate(0.000000,266.000000) scale(0.100000,-0.100000)"
fill="#000000" stroke="none">
<path d="M4004 2257 c-3 -8 -4 -306 -2 -663 3 -645 3 -649 25 -704 31 -77 74
-124 141 -157 54 -26 65 -28 187 -28 116 0 136 3 190 25 l60 25 3 104 c3 132
2 137 -39 115 -48 -24 -177 -31 -217 -10 -61 31 -62 41 -62 401 l0 325 160 0
160 0 0 120 0 120 -160 0 -160 0 -2 168 -3 167 -138 3 c-109 2 -138 0 -143
-11z"/>
<path d="M1990 1944 c-107 -23 -205 -77 -285 -158 -115 -117 -173 -253 -182
-431 -19 -377 251 -666 621 -665 173 1 319 56 434 164 l65 63 -44 40 c-24 22
-61 55 -82 73 l-37 32 -53 -40 c-29 -23 -80 -54 -112 -69 -53 -25 -72 -28
-160 -28 -87 0 -107 4 -156 26 -91 43 -158 125 -187 232 l-10 37 443 0 444 0
7 37 c11 57 -13 227 -44 318 -98 283 -367 433 -662 369z m257 -250 c29 -14 64
-39 78 -56 34 -40 71 -113 80 -158 3 -19 9 -43 11 -52 5 -17 -14 -18 -306 -18
l-312 0 7 33 c50 231 250 345 442 251z"/>
<path d="M293 1918 c2 -7 116 -280 252 -606 270 -647 257 -603 199 -671 -53
-63 -121 -76 -225 -41 -34 12 -62 20 -64 18 -16 -19 -86 -191 -82 -201 3 -8
45 -27 94 -43 71 -23 105 -29 178 -29 50 0 108 6 131 13 94 28 180 113 238
236 23 48 502 1280 513 1319 5 16 -6 17 -140 17 l-145 0 -52 -147 c-28 -82
-97 -280 -153 -440 -56 -161 -105 -293 -109 -293 -3 0 -11 15 -17 33 -6 17
-82 215 -168 440 l-156 407 -149 0 c-116 0 -149 -3 -145 -12z"/>
<path d="M2696 1918 c4 -7 101 -142 216 -299 114 -157 208 -290 208 -294 0 -4
-94 -137 -208 -294 -115 -157 -212 -292 -216 -298 -6 -10 26 -13 146 -13 l153
1 215 296 c118 163 215 301 215 308 0 7 -97 145 -215 308 l-215 296 -153 1
c-120 0 -152 -3 -146 -12z"/>
<path d="M3456 1779 l-109 -151 30 -41 c92 -131 119 -166 123 -166 5 0 346
466 363 495 7 12 -17 14 -145 14 l-153 -1 -109 -150z"/>
<path d="M3451 1167 c-25 -34 -58 -81 -74 -104 l-30 -41 109 -151 109 -151
153 0 c127 0 152 2 145 14 -18 31 -358 496 -363 496 -3 -1 -25 -29 -49 -63z"/>
</g>
</svg>
