<?xml version="1.0" standalone="no"?>
<!DOCTYPE svg PUBLIC "-//W3C//DTD SVG 1.1//EN" "http://www.w3.org/Graphics/SVG/1.1/DTD/svg11.dtd" >
<svg xmlns="http://www.w3.org/2000/svg">
<metadata></metadata>
<defs>
<font id="museo_slab300" horiz-adv-x="1118" >
<font-face units-per-em="2048" ascent="1536" descent="-512" />
<missing-glyph horiz-adv-x="512" />
<glyph unicode="&#xfb01;" horiz-adv-x="1314" d="M84 915v115h184v53q0 93 25.5 163t61.5 107.5t85.5 60.5t87.5 29.5t76 6.5q23 0 44 -1.5t30 -2.5l10 -2v-121q-27 6 -70 6q-25 0 -49 -4t-55 -19t-53 -40t-37.5 -72t-15.5 -109v-55h675v-915h174v-115h-487v115h174v800h-536v-800h204v-115h-518v115h174v800h-184z M934 1266v174h158v-174h-158z" />
<glyph unicode="&#xfb02;" horiz-adv-x="1271" d="M84 915v115h184v35q0 92 26.5 164t69.5 116t101.5 72.5t117 39.5t122.5 11q88 0 171 -12t122 -24l40 -11v-1153q0 -73 26 -113t99 -40l49 4v-119q-38 -6 -77 -6q-112 0 -174 61t-62 203v1069q-60 25 -197 25q-57 0 -106 -14t-93 -44.5t-69.5 -88.5t-25.5 -138v-37h262 v-115h-262v-800h204v-115h-518v115h174v800h-184z" />
<glyph unicode="&#xfb03;" horiz-adv-x="1988" d="M84 915v115h184v53q0 93 25.5 163t61.5 107.5t85.5 60.5t87.5 29.5t76 6.5q23 0 44 -1.5t30 -2.5l10 -2v-121q-27 6 -70 6q-25 0 -49 -4t-55 -19t-53 -40t-37.5 -72t-15.5 -109v-55h536v53q0 78 17 140t46.5 100.5t63 65t74 39t71.5 17.5t62 5q23 0 44 -1.5t30 -2.5 l10 -2v-121q-27 6 -70 6q-25 0 -49 -4t-54.5 -19t-52.5 -40t-37.5 -72t-15.5 -109v-55h674v-915h174v-115h-487v115h174v800h-535v-800h203v-115h-516v115h174v800h-536v-800h204v-115h-518v115h174v800h-184zM1608 1266v174h157v-174h-157z" />
<glyph unicode="&#xfb04;" horiz-adv-x="1945" d="M84 915v115h184v53q0 93 25 163t61.5 107.5t86 60.5t88 29.5t79.5 6.5l80 -6v-121q-28 6 -67 6q-26 0 -50 -4t-55.5 -19t-54 -40t-38 -72t-15.5 -109v-55h536v35q0 92 26.5 164t68.5 116t100.5 72.5t116.5 39.5t122 11q88 0 171.5 -12t122.5 -24l40 -11v-1153 q0 -73 26 -113t99 -40l49 4v-119q-39 -6 -78 -6q-112 0 -173.5 61t-61.5 203v1069q-60 25 -197 25q-57 0 -106 -14t-92.5 -44.5t-69 -88.5t-25.5 -138v-37h260v-115h-260v-800h203v-115h-516v115h174v800h-536v-800h204v-115h-518v115h174v800h-184z" />
<glyph horiz-adv-x="2048" />
<glyph horiz-adv-x="2048" />
<glyph unicode="&#xd;" horiz-adv-x="2048" />
<glyph unicode=" "  horiz-adv-x="512" />
<glyph unicode="&#x09;" horiz-adv-x="512" />
<glyph unicode="&#xa0;" horiz-adv-x="512" />
<glyph unicode="!" horiz-adv-x="479" d="M160 0v162h162v-162h-162zM168 1440h143l-6 -1063h-131z" />
<glyph unicode="&#x22;" horiz-adv-x="651" d="M141 1049v411h121v-411h-121zM389 1049v411h121v-411h-121z" />
<glyph unicode="#" horiz-adv-x="1482" d="M96 399l19 115h291l71 401h-291l21 115h289l71 410h125l-71 -410h354l72 410h124l-71 -410h289l-21 -115h-287l-71 -401h286l-20 -115h-285l-71 -399h-125l69 399h-352l-72 -399h-125l72 399h-291zM530 514h355l71 401h-354z" />
<glyph unicode="$" horiz-adv-x="1083" d="M94 190l84 105q6 -6 18 -17t50.5 -38t79.5 -48t104 -38t125 -17q123 0 206 68.5t83 181.5q0 51 -25 93t-67 71.5t-96 55.5t-114 49.5t-120.5 49t-114.5 59t-96 74t-67 99t-25 129.5q0 139 104 238.5t273 121.5v226h114v-221q62 -3 120 -18.5t96.5 -35.5t68 -39t43.5 -32 l14 -13l-67 -112q-5 5 -15 13t-43 29t-67.5 37t-86.5 29t-104 13q-137 0 -221 -67t-84 -165q0 -55 24.5 -99t66.5 -74.5t96.5 -57t114.5 -50t119.5 -48t114 -56.5t96.5 -71t66.5 -95.5t24.5 -126.5q0 -151 -102 -258.5t-275 -124.5v-221h-114v221q-73 6 -141 26.5t-113.5 46 t-80.5 50t-51 41.5z" />
<glyph unicode="%" horiz-adv-x="1462" d="M98 1180q0 117 83.5 200.5t203.5 83.5t204.5 -83.5t84.5 -200.5q0 -118 -84.5 -201.5t-204.5 -83.5t-203.5 83t-83.5 202zM111 0l1097 1440h146l-1096 -1440h-147zM221 1180q0 -71 47 -120.5t117 -49.5t119 49.5t49 120.5q0 70 -49 120t-119 50t-117 -50t-47 -120z M791 258q0 119 83 203t203 84t204.5 -84t84.5 -203q0 -117 -84.5 -200t-204.5 -83t-203 83t-83 200zM913 260q0 -71 47 -120.5t117 -49.5t119 49.5t49 120.5q0 70 -49 120t-119 50t-117 -50t-47 -120z" />
<glyph unicode="&#x26;" horiz-adv-x="1361" d="M113 397q0 130 70.5 236t195.5 143v4q-4 1 -11.5 4t-29 14.5t-40.5 26.5t-43 41.5t-41 58t-28.5 77.5t-11.5 98q0 165 123.5 264.5t327.5 99.5q33 0 74.5 -5t66.5 -10l25 -5l-41 -119q-68 14 -119 14q-134 0 -221.5 -67t-87.5 -180q0 -34 6 -65.5t26.5 -69t53 -64.5 t92 -45.5t137.5 -18.5h338v205h141v-205h195v-122h-195v-213q0 -253 -133.5 -386t-364.5 -133q-223 0 -364 120t-141 302zM258 408q0 -130 98.5 -216t264.5 -86t260 95.5t94 296.5v209h-344q-183 0 -278 -80t-95 -219z" />
<glyph unicode="'" horiz-adv-x="403" d="M141 1049v411h121v-411h-121z" />
<glyph unicode="(" horiz-adv-x="616" d="M154 690q0 426 229 805h131q-231 -385 -231 -805q0 -476 231 -885h-131q-108 188 -168.5 417.5t-60.5 467.5z" />
<glyph unicode=")" horiz-adv-x="616" d="M102 -195q232 416 232 885q0 410 -232 805h129q232 -379 232 -805q0 -239 -61.5 -468t-170.5 -417h-129z" />
<glyph unicode="*" horiz-adv-x="983" d="M96 1104l41 129l295 -109l-12 316h139l-12 -316l297 107l43 -125l-303 -88v-4l190 -246l-106 -80l-176 260h-5l-174 -258l-108 78l192 246v4z" />
<glyph unicode="+" horiz-adv-x="1241" d="M86 522v119h473v522h125v-522h471v-119h-471v-522h-125v522h-473z" />
<glyph unicode="," horiz-adv-x="503" d="M49 -264l139 432h160l-178 -432h-121z" />
<glyph unicode="-" horiz-adv-x="1005" d="M213 518v127h580v-127h-580z" />
<glyph unicode="." horiz-adv-x="497" d="M166 0v170h166v-170h-166z" />
<glyph unicode="/" horiz-adv-x="839" d="M94 -86l520 1606h131l-520 -1606h-131z" />
<glyph unicode="0" horiz-adv-x="1263" d="M135 721q0 129 15.5 237t51.5 203t92 161t141.5 104t195.5 38t195.5 -38t141.5 -104t92.5 -161t52 -203t15.5 -237q0 -130 -15.5 -238.5t-52 -204t-92.5 -161.5t-141.5 -104t-195.5 -38t-195.5 38t-141.5 104t-92 161.5t-51.5 204t-15.5 238.5zM283 721q0 -109 10 -197.5 t34.5 -168t63.5 -133t99.5 -85t140.5 -31.5t141.5 31.5t100.5 85t63.5 133t34.5 168t10 197.5q0 108 -10 196t-34.5 167.5t-63.5 133t-100.5 84.5t-141.5 31q-99 0 -168.5 -46t-108 -132.5t-55 -191.5t-16.5 -242z" />
<glyph unicode="1" horiz-adv-x="927" d="M102 0v123h322v1061l2 80h-4q-15 -31 -72 -86l-153 -152l-91 90l326 324h133v-1317h316v-123h-779z" />
<glyph unicode="2" horiz-adv-x="1179" d="M109 92q0 81 25.5 153t68.5 127.5t98.5 106t117.5 94t123.5 85t117 85.5t98.5 90t68.5 103.5t25.5 120.5q0 121 -82.5 198.5t-216.5 77.5q-60 0 -115.5 -20.5t-92 -49.5t-64.5 -58t-41 -49l-13 -21l-102 69q5 11 15.5 28.5t49.5 62t85 79t123 62.5t163 28 q199 0 318.5 -115t119.5 -288q0 -77 -25 -145.5t-67.5 -121.5t-98 -102t-116.5 -91t-122 -83t-116 -84.5t-98 -89t-68.5 -102.5t-25.5 -119h674v201h131v-324h-950q-8 44 -8 92z" />
<glyph unicode="3" horiz-adv-x="1148" d="M92 172l86 104q6 -7 17.5 -18.5t49 -40.5t77.5 -51.5t101.5 -41t123.5 -18.5q133 0 231.5 90t98.5 226q0 96 -50.5 167t-130 105.5t-174.5 34.5q-20 0 -41.5 -1t-34.5 -2t-14 -1l-37 86l389 461q9 10 21.5 21.5t20.5 17.5l8 6v4q-41 -4 -68 -4h-481v-197h-131v320h852 v-101l-426 -493q57 -3 114.5 -16.5t118 -45.5t106.5 -77.5t75.5 -118.5t29.5 -162q0 -187 -136 -319t-339 -132q-79 0 -155.5 20.5t-128.5 49.5t-93 57.5t-60 49.5z" />
<glyph unicode="4" horiz-adv-x="1200" d="M57 399v93l707 948h154v-920h204v-121h-204v-399h-142v399h-719zM225 520h551v649q0 19 2 43t4 38l2 14h-6q-20 -43 -47 -80l-506 -660v-4z" />
<glyph unicode="5" horiz-adv-x="1136" d="M96 162l86 100q5 -6 14 -16.5t40.5 -37.5t67.5 -47.5t94 -37.5t120 -17q151 0 257 99t106 237q0 154 -101 249t-260 95q-44 0 -88 -8.5t-75.5 -20t-56.5 -23.5t-38 -20l-12 -9l-90 32l78 703h702v-320h-129v197h-451l-47 -406l-10 -57h4q11 6 30.5 15t80.5 24.5t123 15.5 q210 0 348.5 -131t138.5 -325q0 -199 -146 -338.5t-360 -139.5q-58 0 -113 10.5t-96.5 27t-78 36t-61 39.5t-42.5 36.5t-27 27.5z" />
<glyph unicode="6" horiz-adv-x="1206" d="M127 647q0 114 22.5 226.5t73 219.5t122.5 189t180 132t237 50q69 0 135 -15t97 -29l32 -15l-53 -123q-10 6 -28.5 14.5t-73.5 22.5t-109 14q-87 0 -162.5 -33.5t-129.5 -89.5t-94 -131t-62.5 -156.5t-30.5 -168.5h4q54 77 153.5 122.5t214.5 45.5q195 0 322 -130.5 t127 -334.5q0 -109 -36 -201t-98 -153t-145.5 -94.5t-177.5 -33.5q-155 0 -274.5 87.5t-182.5 240t-63 344.5zM281 541q0 -55 16.5 -115t48.5 -117t75 -102.5t101.5 -73t122.5 -27.5q144 0 227.5 98t83.5 253q0 154 -89.5 247t-241.5 93q-140 0 -242 -80t-102 -176z" />
<glyph unicode="7" horiz-adv-x="1089" d="M84 1120v320h965v-99l-668 -1341h-148l619 1253q9 19 18.5 35t15.5 22l5 7v4q-35 -4 -76 -4h-602v-197h-129z" />
<glyph unicode="8" horiz-adv-x="1218" d="M123 406q0 69 22.5 134t50 106.5t68.5 81t58.5 52.5t39.5 27q-182 119 -182 293q0 72 27.5 136.5t80 116t137.5 81.5t191 30q199 0 320 -102t121 -268q0 -73 -23.5 -145t-59.5 -126t-57 -80t-38 -43q100 -57 155.5 -131t55.5 -180q0 -111 -60.5 -205.5t-171 -151.5 t-246.5 -57q-131 0 -242 52.5t-179 152.5t-68 226zM268 416q0 -136 103 -224t239 -88q130 0 231 81.5t101 199.5q0 48 -19.5 88t-46.5 67t-78.5 56t-92.5 47t-113 48.5t-117 51.5q-207 -140 -207 -327zM324 1100q0 -35 11 -66t27.5 -55t46 -47.5t55.5 -40t68 -36.5t72.5 -33 t79.5 -33t78 -33q17 17 35 39t48.5 66.5t50 102t19.5 115.5q0 119 -83 187.5t-216 68.5q-135 0 -213.5 -67t-78.5 -168z" />
<glyph unicode="9" horiz-adv-x="1206" d="M102 983q0 218 131 349.5t326 131.5q155 0 274 -87.5t182.5 -239.5t63.5 -344q0 -113 -22.5 -225.5t-72.5 -220t-122.5 -190t-181 -132.5t-238.5 -50q-69 0 -134.5 15t-96.5 30l-31 15l53 123q10 -6 28.5 -14.5t73 -23t107.5 -14.5q88 0 164 33.5t130 89.5t94.5 132 t63 158t30.5 169h-4q-54 -74 -155 -119t-214 -45q-196 0 -322.5 129.5t-126.5 329.5zM250 983q0 -150 90 -242t240 -92q139 0 242.5 78.5t103.5 173.5q0 70 -27.5 146t-74 139.5t-116.5 105t-147 41.5q-143 0 -227 -98t-84 -252z" />
<glyph unicode=":" horiz-adv-x="610" d="M221 0v170h168v-170h-168zM221 860v170h168v-170h-168z" />
<glyph unicode=";" horiz-adv-x="608" d="M113 -264l120 432h160l-160 -432h-120zM225 860v170h164v-170h-164z" />
<glyph unicode="&#x3c;" horiz-adv-x="1241" d="M135 530v103l926 414v-138l-754 -325v-4l754 -326v-137z" />
<glyph unicode="=" horiz-adv-x="1241" d="M143 344v119h955v-119h-955zM143 700v119h955v-119h-955z" />
<glyph unicode="&#x3e;" horiz-adv-x="1241" d="M178 117v137l754 326v4l-754 325v138l926 -414v-103z" />
<glyph unicode="?" horiz-adv-x="925" d="M96 1350q5 5 15 12.5t43 27.5t69 35.5t91.5 28t111.5 12.5q178 0 294 -101.5t116 -260.5q0 -69 -20 -128t-52.5 -101t-72 -80t-78.5 -73t-71.5 -71t-52.5 -83.5t-20 -102.5v-88h-137v92q0 66 19.5 123.5t51.5 99.5t70 80t76 73.5t70 71.5t51.5 82.5t19.5 98.5 q0 100 -75.5 167.5t-192.5 67.5q-62 0 -124 -21.5t-93 -43.5l-31 -21zM319 0v162h162v-162h-162z" />
<glyph unicode="@" horiz-adv-x="1574" d="M98 498q0 154 56.5 292t155 238.5t239.5 159.5t303 59q120 0 214 -32t150 -87t84.5 -123t28.5 -145v-645h144v-115h-549q-176 0 -293 115.5t-117 278.5q0 161 117.5 277t292.5 116h266q-3 100 -92 170.5t-250 70.5q-129 0 -242.5 -50.5t-193 -136t-125 -202t-45.5 -245.5 q0 -171 77.5 -314t217.5 -227t311 -84v-123q-209 0 -381.5 100t-270.5 272.5t-98 379.5zM657 494q0 -115 81 -197t198 -82h254v563h-250q-120 0 -201.5 -83t-81.5 -201z" />
<glyph unicode="A" horiz-adv-x="1468" d="M23 0v119h147l485 1321h158l485 -1321h148v-119h-461v119h166l-137 370h-561l-136 -370h166v-119h-460zM492 610h483l-215 590q-7 21 -13 44t-8 36l-2 12h-6q-4 -45 -20 -92z" />
<glyph unicode="B" horiz-adv-x="1372" d="M111 0v119h188v1202h-188v119h649q153 0 248 -49q79 -38 127.5 -122t48.5 -194q0 -107 -49.5 -188t-135.5 -123v-4q110 -32 176 -128.5t66 -225.5q0 -131 -68 -232.5t-176 -142.5q-82 -31 -215 -31h-671zM442 123h344q95 0 150 22q74 31 116 101t42 162q0 129 -79 206.5 t-206 77.5h-367v-569zM442 815h351q109 0 176 69t67 183q0 71 -27.5 126.5t-76.5 86.5q-62 37 -172 37h-318v-502z" />
<glyph unicode="C" horiz-adv-x="1519" d="M111 729q0 207 96 375.5t263 264t370 95.5q74 0 158.5 -14.5t173 -45t146.5 -89.5t58 -137v-154h-137v115q0 50 -40 89.5t-102 61.5t-127 33.5t-124 11.5q-251 0 -418.5 -171t-167.5 -431q0 -177 76.5 -321t213 -226t304.5 -82q51 0 114.5 10t132.5 31t115 62t46 94v113 h137v-154q0 -60 -38 -109.5t-97.5 -81.5t-134.5 -54t-145.5 -31t-133.5 -9q-158 0 -296.5 59.5t-235 160.5t-152 240t-55.5 294z" />
<glyph unicode="D" horiz-adv-x="1589" d="M111 0v119h188v1202h-188v119h608q185 0 307 -37q207 -67 325.5 -246.5t118.5 -437.5q0 -263 -122 -441t-340 -243q-109 -35 -289 -35h-608zM442 123h265q152 0 256 35q167 55 262.5 200.5t95.5 360.5q0 213 -92.5 360t-255.5 205q-96 33 -266 33h-265v-1194z" />
<glyph unicode="E" horiz-adv-x="1282" d="M111 0v119h188v1202h-188v119h1017v-299h-131v176h-555v-531h545v-122h-545v-541h594v186h129v-309h-1054z" />
<glyph unicode="F" horiz-adv-x="1161" d="M111 0v119h188v1202h-188v119h968v-307h-129v180h-508v-543h527v-123h-527v-528h201v-119h-532z" />
<glyph unicode="G" horiz-adv-x="1570" d="M113 721q0 158 54 295t150.5 236t237 155.5t305.5 56.5q95 0 190 -19t174.5 -54t129 -89.5t49.5 -119.5v-158h-137v109q0 64 -64.5 111.5t-154 69t-185.5 21.5q-135 0 -248 -46t-190 -127t-119.5 -194t-42.5 -245q0 -176 74 -316.5t211 -221.5t313 -81q47 0 101 5.5 t115.5 21t110 38t81 60t32.5 84.5v226h-301v118h437v-376q0 -64 -39.5 -117t-101.5 -87t-140 -58t-153 -34t-144 -10q-217 0 -388 98t-264 267.5t-93 380.5z" />
<glyph unicode="H" horiz-adv-x="1718" d="M111 0v119h188v1202h-188v119h520v-119h-189v-539h834v539h-189v119h521v-119h-189v-1202h189v-119h-521v119h189v540h-834v-540h189v-119h-520z" />
<glyph unicode="I" horiz-adv-x="741" d="M111 0v119h188v1202h-188v119h520v-119h-189v-1202h189v-119h-520z" />
<glyph unicode="J" d="M59 393v68h142v-51q0 -131 66.5 -217.5t193.5 -86.5q109 0 184.5 74t75.5 230v911h-219v119h530v-119h-168v-924q0 -89 -23 -161t-62 -119.5t-91.5 -80t-109 -47t-117.5 -14.5t-117.5 14t-109 46t-91 79t-61.5 118.5t-23 160.5z" />
<glyph unicode="K" horiz-adv-x="1370" d="M111 0v119h188v1202h-188v119h510v-119h-179v-508h211l353 508h-142v119h447v-119h-146l-397 -559v-4q33 -16 70 -84l295 -498q19 -31 43 -44t63 -13h72v-119h-109q-60 0 -95 11t-55.5 32t-47.5 66l-302 518q-20 34 -45 48.5t-69 14.5h-146v-571h187v-119h-518z" />
<glyph unicode="L" horiz-adv-x="1212" d="M111 0v119h188v1198h-188v123h520v-123h-189v-1194h576v239h131v-362h-1038z" />
<glyph unicode="M" horiz-adv-x="1927" d="M74 0v119h188l96 1202h-190v119h346l418 -942l29 -84h4q10 37 30 84l418 942h344v-119h-188l94 -1202h188v-119h-514v119h185l-78 993q-1 16 0 41.5t2 42.5l2 18h-4q-17 -61 -31 -96l-383 -844h-133l-385 844q-6 16 -13.5 40t-11.5 40l-4 16h-6q1 -7 2 -19t2 -39.5 t0 -43.5l-78 -993h185v-119h-514z" />
<glyph unicode="N" horiz-adv-x="1705" d="M111 0v119h188v1202h-188v119h327l807 -1137q9 -15 19.5 -37t17.5 -36l6 -15h4q-1 7 -2 18t-3 38t-1 44v1006h-190v119h522v-119h-188v-1321h-140l-807 1137q-9 15 -19.5 37t-17.5 36l-6 15h-4q1 -7 2 -18.5t3 -38t1 -42.5v-1007h191v-119h-522z" />
<glyph unicode="O" horiz-adv-x="1689" d="M111 729q0 152 57.5 289t155.5 234.5t233.5 154.5t286.5 57t287 -57t234.5 -154.5t156 -234t57.5 -289.5q0 -156 -57.5 -295.5t-155.5 -240t-234.5 -159.5t-287.5 -59q-150 0 -286 59t-234 159.5t-155.5 240.5t-57.5 295zM260 729q0 -173 78.5 -316.5t212.5 -225 t293 -81.5q120 0 228 48.5t186.5 131t125 198t46.5 245.5q0 169 -78.5 308t-213 217.5t-294.5 78.5q-159 0 -293 -78.5t-212.5 -217.5t-78.5 -308z" />
<glyph unicode="P" horiz-adv-x="1314" d="M111 0v119h188v1202h-188v119h655q162 0 246 -41q107 -48 169 -151.5t62 -239.5q0 -148 -70.5 -257.5t-191.5 -152.5q-86 -29 -213 -29h-326v-450h189v-119h-520zM442 692h312q103 0 174 29q80 33 125 107.5t45 179.5q0 97 -39 167t-111 107q-78 35 -194 35h-312v-625z " />
<glyph unicode="Q" horiz-adv-x="1689" d="M111 727q0 205 96.5 374t264.5 266t370 97q153 0 289.5 -56t234.5 -153t155.5 -233t57.5 -289q0 -143 -47 -271.5t-133 -228.5l178 -178l-86 -88l-176 178q-198 -170 -473 -170q-151 0 -286.5 59t-233 159.5t-154.5 240t-57 293.5zM260 727q0 -172 76.5 -314.5 t210.5 -224.5t295 -82q100 0 200.5 35.5t174.5 100.5l-220 223l84 88l219 -223q134 173 134 399q0 169 -78 308t-213.5 217.5t-300.5 78.5q-162 0 -295.5 -78.5t-210 -217.5t-76.5 -310z" />
<glyph unicode="R" horiz-adv-x="1404" d="M111 0v119h188v1202h-188v119h616q158 0 256 -33q110 -40 172 -131t62 -229q0 -161 -86 -271.5t-234 -136.5v-4q26 -19 49 -60l240 -409q16 -29 37.5 -38t64.5 -9h41v-119h-78q-64 0 -97 9.5t-53 30t-48 69.5l-242 413q-30 53 -61 70.5t-101 17.5h-207v-491h187v-119 h-518zM442 733h338q131 0 211 83t80 220q0 192 -158 254q-73 27 -190 27h-281v-584z" />
<glyph unicode="S" horiz-adv-x="1159" d="M121 264v137h137v-104q0 -87 92 -139t223 -52q143 0 232.5 69t89.5 192q0 31 -7 58.5t-16.5 49.5t-29 44t-35.5 37t-46 32.5t-49.5 28t-57 26.5t-57.5 23.5t-62 23.5q-53 20 -81.5 31.5t-76 34.5t-74 42.5t-60 50.5t-51 64t-30 78.5t-12.5 98.5q0 121 61 207.5 t158.5 126.5t218.5 40q106 0 199 -25t155 -78t62 -122v-154h-138v107q0 44 -43.5 77t-105.5 48.5t-129 15.5q-128 0 -209.5 -60.5t-81.5 -172.5q0 -60 21.5 -105t77 -81t91.5 -53t123 -51q11 -5 17 -7q44 -17 69.5 -26.5t66.5 -27.5t65 -31.5t57.5 -35.5t53 -42.5t41.5 -49 t34 -59t20 -69t8 -81.5q0 -186 -132.5 -296t-336.5 -110q-80 0 -158.5 18t-145 52t-107.5 91t-41 128z" />
<glyph unicode="T" horiz-adv-x="1339" d="M66 1083v357h1208v-357h-131v234h-402v-1198h189v-119h-520v119h188v1198h-403v-234h-129z" />
<glyph unicode="U" horiz-adv-x="1617" d="M68 1321v119h520v-119h-189v-789q0 -163 64 -264q51 -78 140 -120t206 -42t208 43.5t138 124.5q64 109 64 263v784h-189v119h520v-119h-188v-791q0 -206 -92 -340q-70 -104 -190.5 -159.5t-270.5 -55.5q-151 0 -273.5 57t-191.5 161q-88 130 -88 337v791h-188z" />
<glyph unicode="V" horiz-adv-x="1443" d="M25 1321v119h464v-119h-165l372 -1067l23 -94h6q9 49 23 94l372 1067h-164v119h465v-119h-149l-471 -1321h-158l-471 1321h-147z" />
<glyph unicode="W" horiz-adv-x="2048" d="M35 1321v119h465v-119h-172l258 -1059l14 -94h8q7 49 19 94l329 1178h134l331 -1178l19 -94h8q4 49 14 94l258 1059h-172v119h465v-119h-147l-334 -1321h-170l-318 1133q-5 19 -9 42.5t-5 37.5l-2 14h-8q-4 -51 -16 -94l-320 -1133h-168l-336 1321h-145z" />
<glyph unicode="X" horiz-adv-x="1320" d="M57 0v119h144l374 608l-372 594h-140v119h459v-119h-164l279 -451l33 -53h4l3 5q15 28 28 48l268 451h-158v119h449v-119h-142l-381 -610l375 -592h144v-119h-457v119h158l-277 448l-33 56h-4q-13 -27 -31 -56l-268 -448h160v-119h-451z" />
<glyph unicode="Y" horiz-adv-x="1318" d="M23 1321v119h454v-119h-160l312 -524l28 -56h5q12 29 28 56l314 524h-160v119h452v-119h-141l-424 -703v-499h189v-119h-521v119h189v499l-424 703h-141z" />
<glyph unicode="Z" horiz-adv-x="1275" d="M117 0v100l790 1149q13 18 27.5 35t22.5 25l8 8v4q-39 -4 -80 -4h-629v-234h-129v357h1012v-101l-791 -1149q-13 -18 -27 -35t-22 -25l-8 -7v-4q39 4 80 4h657v239h129v-362h-1040z" />
<glyph unicode="[" horiz-adv-x="608" d="M211 -195v1690h276v-115h-147v-1460h147v-115h-276z" />
<glyph unicode="\" horiz-adv-x="837" d="M94 1520h131l518 -1606h-131z" />
<glyph unicode="]" horiz-adv-x="606" d="M117 -80h149v1460h-149v115h278v-1690h-278v115z" />
<glyph unicode="^" horiz-adv-x="1241" d="M150 512l405 928h96l408 -928h-135l-320 758l-319 -758h-135z" />
<glyph unicode="_" d="M31 0h1056v-119h-1056v119z" />
<glyph unicode="`" horiz-adv-x="1032" d="M322 1784h178l200 -244h-147z" />
<glyph unicode="a" d="M78 283q0 69 26 124.5t65.5 91t98.5 61.5t112 39.5t120 21t108 9t90 1.5h68v43q0 260 -248 260q-49 0 -97.5 -10.5t-83.5 -25t-62.5 -29t-41.5 -25.5l-14 -10l-65 104q6 5 16.5 13t47 28t77 35.5t103.5 28t128 12.5q187 0 283 -98t96 -289v-508q0 -45 45 -45h113v-115 h-168q-65 0 -94 28t-29 85v18q0 22 1.5 42t2.5 29l2 9h-4q-2 -5 -5.5 -13.5t-18 -33t-32 -47t-47.5 -49.5t-64 -46.5t-82.5 -33t-102.5 -13.5q-65 0 -125 19t-109.5 55.5t-79.5 97t-30 136.5zM221 297q0 -85 59.5 -146t161.5 -61q75 0 137.5 35t102.5 91t62 124t22 137v49 h-59q-486 0 -486 -229z" />
<glyph unicode="b" horiz-adv-x="1220" d="M0 1325v115h324v-508q0 -22 -2 -43.5t-4 -32.5l-1 -10h5q4 8 11.5 22.5t37 50.5t66 63.5t100.5 50t137 22.5q205 0 326.5 -149.5t121.5 -391.5t-130 -390.5t-335 -148.5q-51 0 -97 11.5t-79 30t-61.5 41t-47 45.5t-31.5 41.5t-19 29.5l-5 12h-4q6 -37 6 -86v-100h-135 v1325h-184zM319 512q0 -107 35 -198.5t111.5 -152.5t181.5 -61q142 0 238 112t96 302q0 188 -91 301t-237 113q-67 0 -125.5 -24.5t-106 -73t-75 -130.5t-27.5 -188z" />
<glyph unicode="c" horiz-adv-x="1126" d="M94 512q0 118 42.5 220t115.5 172.5t172 110.5t209 40q54 0 115 -11.5t123 -36t102.5 -70.5t40.5 -106v-112h-129v76q0 43 -44 75t-99.5 46t-106.5 14q-171 0 -284 -114.5t-113 -299.5q0 -187 116 -301.5t287 -114.5q41 0 80.5 7t71.5 19t59.5 25.5t50 29t36.5 27 t26.5 22.5t13.5 12l59 -107q-59 -51 -102 -77q-138 -83 -299 -83q-148 0 -271 65t-197.5 189t-74.5 283z" />
<glyph unicode="d" horiz-adv-x="1265" d="M98 514q0 244 129 392.5t336 148.5q50 0 96 -11t78.5 -29t60.5 -39.5t46 -42.5t31 -39t19 -29l5 -11h4q-6 35 -6 80v391h-184v115h323v-1280q0 -45 45 -45h115v-115h-170q-65 0 -94 28t-29 85v18q0 18 2 34t4 23l2 7h-4q-2 -5 -5.5 -12.5t-18 -30.5t-32.5 -44t-48.5 -46 t-65.5 -43.5t-85.5 -31t-106.5 -12.5q-205 0 -326 149t-121 390zM242 514q0 -188 89.5 -301t235.5 -113q67 0 125.5 24.5t106 73t75 130t27.5 186.5q0 81 -20.5 154t-60 132t-103 93.5t-142.5 34.5q-143 0 -238 -111.5t-95 -302.5z" />
<glyph unicode="e" horiz-adv-x="1130" d="M96 514q0 124 40 227t109.5 171t161.5 105.5t197 37.5q138 0 237.5 -66t147 -172t47.5 -237l-6 -66h-790q3 -128 58.5 -223.5t144 -143t196.5 -47.5q53 0 104.5 12.5t87.5 31t64.5 36.5t42.5 30l14 13l64 -104q-6 -6 -17.5 -15.5t-49.5 -34.5t-79.5 -44t-105.5 -34.5 t-129 -15.5q-232 0 -385.5 151.5t-153.5 387.5zM246 616h645q-6 156 -88 239t-203 83q-134 0 -232 -85t-122 -237z" />
<glyph unicode="f" horiz-adv-x="727" d="M84 915v115h184v53q0 93 25.5 163t61.5 107.5t85.5 60.5t87.5 29.5t76 6.5q23 0 44 -1.5t30 -2.5l10 -2v-121q-27 6 -70 6q-25 0 -49 -4t-55 -19t-53 -40t-37.5 -72t-15.5 -109v-55h262v-115h-262v-800h204v-115h-518v115h174v800h-184z" />
<glyph unicode="g" horiz-adv-x="1253" d="M100 535q0 234 121 377t326 143q116 0 211.5 -46t134.5 -137h4q-4 15 -4 46q0 58 27 85t92 27h184v-115h-127q-45 0 -45 -43v-847q0 -95 -27.5 -172.5t-74 -129.5t-110.5 -87t-135 -50.5t-149 -15.5q-174 0 -335 82l53 112q14 -8 39 -20t98 -31.5t141 -19.5 q77 0 141.5 18.5t114 57t77.5 102t28 147.5v103l6 74h-4q-100 -189 -328 -189q-206 0 -332.5 148t-126.5 381zM244 537q0 -186 91.5 -296t244.5 -110q64 0 117.5 21t97 66.5t68 126t24.5 190.5q0 395 -326 395q-150 0 -233.5 -104t-83.5 -289z" />
<glyph unicode="h" horiz-adv-x="1347" d="M51 1325v115h324v-566q0 -21 -2 -41.5t-4 -30.5l-2 -11h4q13 31 36 64.5t60.5 70t82 64.5t106 46.5t128.5 18.5q184 0 264 -100.5t80 -299.5v-540h177v-115h-316v618q0 55 -4 95t-17.5 82t-37 68.5t-65 43.5t-99.5 17q-166 0 -278.5 -123t-112.5 -307v-379h174v-115h-488 v115h175v1210h-185z" />
<glyph unicode="i" horiz-adv-x="643" d="M84 915v115h324v-915h174v-115h-488v115h174v800h-184zM260 1266v174h158v-174h-158z" />
<glyph unicode="j" horiz-adv-x="561" d="M-43 -297q18 -4 45 -4q29 0 56 4.5t61.5 21t59 43.5t42 78t17.5 119v950h-185v115h324v-1067q0 -97 -27 -170.5t-65.5 -113t-91.5 -64t-94 -31t-83 -6.5q-16 0 -30.5 1.5t-21.5 2.5l-7 2v119zM227 1266v174h158v-174h-158z" />
<glyph unicode="k" horiz-adv-x="1146" d="M51 1325v115h324v-811h162l243 286h-147v115h442v-115h-143l-283 -327v-4q2 0 10 -5t26 -25.5t36 -51.5l205 -344q15 -26 33 -34.5t61 -8.5h70v-115h-115q-76 0 -108.5 19t-69.5 83l-219 371q-18 26 -39.5 34.5t-61.5 8.5h-102v-401h164v-115h-478v115h175v1210h-185z " />
<glyph unicode="l" horiz-adv-x="555" d="M0 1325v115h322v-1172q0 -71 25.5 -112t90.5 -41l58 4v-119q-39 -6 -80 -6q-234 0 -234 264v1067h-182z" />
<glyph unicode="m" horiz-adv-x="2039" d="M84 915v115h197q64 0 94.5 -28t30.5 -87v-59q0 -18 -2 -36.5t-4 -27.5l-3 -10h4q41 108 152.5 190.5t230.5 82.5q138 0 215 -65t99 -197h4q45 108 150.5 185t230.5 77q180 0 260 -101t80 -299v-540h174v-115h-314v621q0 69 -9 120t-31.5 95.5t-68 68t-112.5 23.5 q-100 0 -181 -64.5t-123 -163t-42 -206.5v-379h174v-115h-313v621q0 54 -3.5 92.5t-16.5 82t-35.5 70t-63.5 44.5t-98 18q-101 0 -183.5 -65.5t-125.5 -165t-43 -208.5v-374h174v-115h-488v115h174v755q0 45 -45 45h-139z" />
<glyph unicode="n" horiz-adv-x="1380" d="M84 915v115h197q64 0 94.5 -28t30.5 -87v-59q0 -18 -2 -36.5t-4 -27.5l-3 -10h4q10 27 29.5 58.5t56.5 71t82.5 70.5t112 52t139.5 21q184 0 263 -100.5t79 -299.5v-540h174v-115h-313v618q0 55 -4 95t-18 82t-38 68.5t-65.5 43.5t-99.5 17q-110 0 -201 -59.5 t-140.5 -157.5t-49.5 -211v-381h174v-115h-488v115h174v755q0 45 -45 45h-139z" />
<glyph unicode="o" horiz-adv-x="1271" d="M92 520q0 149 73 272.5t197.5 193t272.5 69.5q149 0 274 -69.5t198 -192.5t73 -273q0 -114 -43 -216t-116.5 -173.5t-174 -113.5t-211.5 -42t-211 42t-173 113.5t-116 173.5t-43 216zM236 520q0 -178 116.5 -299t282.5 -121q167 0 284 120.5t117 299.5q0 174 -117 292 t-284 118q-166 0 -282.5 -118.5t-116.5 -291.5z" />
<glyph unicode="p" horiz-adv-x="1275" d="M53 915v115h195q65 0 94 -26.5t29 -81.5v-9q0 -18 -1.5 -36t-3.5 -27l-1 -8h4q3 9 10.5 23t37 51t66.5 65t103 51t143 23q205 0 327 -149.5t122 -391.5t-130 -390.5t-333 -148.5q-69 0 -130 21t-97.5 51t-63.5 60.5t-38 51.5l-11 21h-4q6 -37 6 -90v-385h174v-115h-488 v115h175v1165q0 45 -45 45h-140zM375 512q0 -79 21.5 -152t61.5 -131.5t103 -93.5t139 -35q142 0 238 112t96 302q0 188 -90.5 301t-236.5 113q-67 0 -125 -24.5t-105 -73t-74.5 -130.5t-27.5 -188z" />
<glyph unicode="q" horiz-adv-x="1220" d="M98 516q0 242 129.5 390.5t333.5 148.5q42 0 81 -8.5t68.5 -21t57 -30.5t46.5 -35t36.5 -37t26.5 -32.5t17 -25.5l9 -13h4q-6 33 -6 76v102h135v-1325h174v-115h-487v115h174v389q0 24 2 46.5t4 33.5l2 10h-4q-4 -8 -11.5 -22.5t-37.5 -50.5t-66.5 -63.5t-100.5 -50 t-138 -22.5q-205 0 -327 149.5t-122 391.5zM242 516q0 -189 89.5 -302.5t235.5 -113.5q67 0 125.5 24.5t106 73t75 130.5t27.5 188q0 80 -20.5 153t-60 132t-103.5 94t-144 35q-141 0 -236 -112.5t-95 -301.5z" />
<glyph unicode="r" horiz-adv-x="817" d="M80 915v115h194q65 0 95 -28t30 -89v-69l-4 -78h4q40 123 125 198.5t201 75.5l57 -6v-137q-26 4 -53 4q-67 0 -122.5 -29t-92.5 -75.5t-62.5 -108t-37 -125t-11.5 -127.5v-321h160v-115h-459v115h160v755q0 45 -45 45h-139z" />
<glyph unicode="s" horiz-adv-x="962" d="M92 219v100h127v-73q0 -49 43 -84.5t102 -50.5t123 -15q103 0 172.5 43.5t69.5 118.5q0 53 -40.5 93.5t-80 59t-131.5 52.5q-8 3 -14 5.5t-12 4.5q-57 21 -94.5 37t-84.5 43.5t-74.5 57t-47 73.5t-19.5 96q0 89 54 153.5t133 93t169 28.5q55 0 112.5 -12t110 -35 t86 -63.5t33.5 -90.5v-119h-127v76q0 55 -62 89t-148 34q-92 0 -155 -39.5t-63 -110.5q0 -33 15.5 -61t36 -47t61 -39.5t68.5 -31.5t80 -30q42 -15 69.5 -25.5t66.5 -28.5t64 -34t53 -40t44 -49.5t27 -59.5t11 -72q0 -132 -108 -211.5t-281 -79.5q-98 0 -185 27t-145.5 84.5 t-58.5 132.5z" />
<glyph unicode="t" horiz-adv-x="694" d="M37 915v115h186v285h137v-285h261v-115h-261v-528q0 -69 17 -121t42 -80.5t58.5 -45.5t60.5 -22t56 -5l47 4v-121q-24 -4 -59 -4q-43 0 -84 6.5t-94 30t-91 62.5t-65 112.5t-27 171.5v540h-184z" />
<glyph unicode="u" horiz-adv-x="1333" d="M35 915v115h323v-620q0 -55 4 -95t18 -82t37.5 -68.5t66 -43.5t100.5 -17q111 0 199.5 63t134 162t45.5 212v374h-185v115h324v-872q0 -45 45 -45h117v-113h-174q-64 0 -93.5 28t-29.5 87v51l2 74h-4q-9 -26 -28 -57.5t-54.5 -69t-79.5 -67.5t-109 -50.5t-137 -20.5 q-176 0 -257 98t-81 302v540h-184z" />
<glyph unicode="v" horiz-adv-x="1153" d="M16 915v115h426v-115h-147l258 -690q6 -16 11 -36t7 -32l2 -12h7q6 43 20 80l258 690h-147v115h426v-115h-136l-350 -915h-149l-350 915h-136z" />
<glyph unicode="w" horiz-adv-x="1742" d="M20 915v115h426v-115h-153l215 -692q5 -16 9 -36t5 -32l2 -12h4q7 43 17 80l258 803h137l258 -803l16 -80h5q4 43 14 80l217 692h-154v115h426v-115h-133l-293 -915h-149l-254 772q-5 16 -10 36.5t-7 33.5l-2 12h-6q-6 -45 -18 -82l-254 -772h-152l-292 915h-132z" />
<glyph unicode="x" horiz-adv-x="1132" d="M59 0v115h164l264 420l-241 380h-176v115h260l207 -340l32 -59h4q15 30 33 61l211 338h250v-115h-170l-244 -380l269 -420h155v-115h-241l-232 379l-35 59h-4q-13 -30 -33 -61l-229 -377h-244z" />
<glyph unicode="y" horiz-adv-x="1175" d="M16 915v115h433v-115h-150l270 -702l17 -74h6q6 35 20 74l271 702h-150v115h426v-115h-135l-438 -1105q-45 -112 -127.5 -176t-188.5 -64q-52 0 -100.5 15t-71.5 31l-22 15l53 111q7 -5 19 -13.5t47.5 -22t70.5 -13.5q65 0 115 45.5t82 118.5l57 137l-368 921h-136z" />
<glyph unicode="z" horiz-adv-x="1054" d="M100 0v98l613 758q13 16 26 30.5t20 20.5l7 6v5q-37 -3 -78 -3h-446v-182h-127v297h827v-100l-612 -756q-13 -16 -26.5 -30.5t-20.5 -20.5l-7 -6v-4q39 2 80 2h465v182h127v-297h-848z" />
<glyph unicode="{" horiz-adv-x="655" d="M74 598v127q7 1 19 3.5t42 18t52.5 38.5t41.5 69.5t19 106.5v167q0 96 24.5 167.5t58.5 108.5t80 59t77.5 27t62.5 5h33v-115h-21q-16 0 -31.5 -2.5t-38.5 -10.5t-42 -26t-36.5 -44.5t-27.5 -71t-10 -101.5v-200q0 -56 -17 -103.5t-41 -75t-48 -47t-41 -26.5l-17 -8v-5 q7 -2 18 -6.5t39 -25t50 -46.5t39.5 -74.5t17.5 -107.5v-225q0 -57 10 -101.5t27.5 -71t36.5 -44.5t42 -26t38.5 -10.5t31.5 -2.5h21v-115q-13 -2 -33 -2q-32 0 -63 5t-77 27.5t-80 59.5t-58.5 109t-24.5 168v195q0 60 -18 106t-43.5 68.5t-51 37t-43.5 17.5z" />
<glyph unicode="|" horiz-adv-x="538" d="M205 -322v1936h129v-1936h-129z" />
<glyph unicode="}" horiz-adv-x="655" d="M70 -82h20q20 0 39 3.5t48 18.5t50 40.5t36.5 76t15.5 117.5v225q0 43 9 80t23.5 63t31.5 47t34.5 33.5t32 21t23.5 12.5l9 3v5q-7 2 -18 7.5t-39 26.5t-49.5 47.5t-39 74.5t-17.5 104v200q0 67 -15.5 117.5t-36.5 76t-50 40.5t-48 18.5t-39 3.5h-20v115h32q21 0 43 -2.5 t53.5 -11.5t58.5 -24t56 -43t49 -65.5t33 -94t13 -126.5v-167q0 -60 18 -106.5t43.5 -70t51 -38t43.5 -18.5l18 -3v-127q-7 -1 -19 -3.5t-42 -17.5t-52.5 -37.5t-41.5 -68.5t-19 -106v-195q0 -96 -24.5 -168t-58.5 -109t-80.5 -59.5t-78.5 -27.5t-64 -5l-32 2v115z" />
<glyph unicode="~" horiz-adv-x="1232" d="M154 428q0 162 68.5 239.5t189.5 77.5q62 0 111 -22t81 -53.5t61.5 -62.5t68.5 -53t87 -22q43 0 74 20.5t45.5 54.5t20.5 65.5t6 64.5h118q0 -162 -68.5 -239.5t-189.5 -77.5q-62 0 -111 22t-81 53t-61.5 62.5t-68.5 53.5t-87 22q-43 0 -74 -20.5t-45.5 -54.5 t-20.5 -65.5t-6 -64.5h-118z" />
<glyph unicode="&#xa1;" horiz-adv-x="458" d="M147 868v162h160v-162h-160zM158 -410l6 1063h131l6 -1063h-143z" />
<glyph unicode="&#xa2;" horiz-adv-x="1124" d="M96 721q0 231 113 389.5t317 181.5v172h115v-172q257 -29 383 -303l-131 -49q-101 221 -303 221q-115 0 -195.5 -59.5t-117.5 -157t-37 -223.5q0 -197 88.5 -318.5t261.5 -121.5q203 0 303 219l131 -49q-60 -128 -156.5 -210.5t-226.5 -93.5v-174h-115v174 q-204 23 -317 182t-113 392z" />
<glyph unicode="&#xa3;" horiz-adv-x="1245" d="M92 0v121h180v547h-135v112h135v305q0 162 119.5 270.5t304.5 108.5q54 0 107 -11.5t89.5 -28.5t66 -34t43.5 -28l14 -12l-84 -103l-12 9t-33 21t-51 26t-64.5 20.5t-75.5 9.5q-130 0 -205 -74t-75 -182v-297h389v-112h-389v-545h600v239h131v-362h-1055z" />
<glyph unicode="&#xa5;" horiz-adv-x="1277" d="M94 1440h162l293 -512q19 -36 41 -82t34 -74l13 -27h4q45 101 88 183l295 512h162l-361 -619h215v-104h-272l-55 -101v-79h327v-105h-327v-432h-144v432h-333v105h333v79l-57 101h-276v104h217z" />
<glyph unicode="&#xa7;" horiz-adv-x="825" d="M106 -41l70 98q8 -7 22.5 -17t58.5 -27t87 -17q97 0 160 60t63 163q0 43 -6 66l-135 878h123l139 -889q8 -36 8 -71q0 -144 -98 -237t-256 -93q-62 0 -121 21.5t-87 43.5zM131 1135q0 143 98 236t256 93q39 0 78.5 -9t67 -21.5t49 -25t32.5 -21.5l11 -9l-74 -96 q-8 7 -22 16.5t-57 26t-85 16.5q-98 0 -162.5 -59t-64.5 -160q0 -21 8 -61l135 -887h-120l-142 889q-8 50 -8 72z" />
<glyph unicode="&#xa8;" horiz-adv-x="1032" d="M258 1608v176h141v-176h-141zM633 1608v176h141v-176h-141z" />
<glyph unicode="&#xa9;" horiz-adv-x="1658" d="M102 721q0 152 57.5 290t154 237t230.5 157.5t281 58.5q150 0 286 -58.5t234.5 -157.5t156 -236.5t57.5 -290.5q0 -206 -98 -377.5t-266.5 -270t-369.5 -98.5q-147 0 -281 58.5t-230.5 157.5t-154 237.5t-57.5 292.5zM223 721q0 -176 79 -322t217.5 -229.5t305.5 -83.5 q171 0 312.5 83.5t222 229.5t80.5 322q0 175 -80.5 320t-222 229t-312.5 84q-167 0 -305.5 -84t-217.5 -229t-79 -320zM424 717q0 110 48 204.5t146 156t228 61.5q63 0 120.5 -19.5t94.5 -47.5t65.5 -56.5t41.5 -47.5l12 -20l-95 -63q-3 6 -9.5 15.5t-29 33.5t-48 43 t-65.5 34t-83 15q-142 0 -223.5 -90.5t-81.5 -216.5q0 -127 81 -217t224 -90q43 0 83 14.5t66.5 35t46.5 41.5t30 35l9 15l95 -64q-5 -8 -13.5 -20.5t-40 -45.5t-67 -58t-93.5 -45.5t-120 -20.5q-130 0 -228 60.5t-146 154t-48 203.5z" />
<glyph unicode="&#xaa;" horiz-adv-x="878" d="M168 541v96h539v-96h-539zM170 977q0 227 393 227h25v8q0 152 -144 152q-42 0 -85.5 -15t-66.5 -29l-22 -15l-51 79q4 3 10.5 8t30 18.5t49 23.5t65.5 18t81 8q120 0 182.5 -64.5t62.5 -187.5v-413h-108v100h-4q-2 -5 -7 -12.5t-22.5 -27t-38 -34.5t-54.5 -27t-71 -12 q-90 0 -157.5 51.5t-67.5 143.5zM287 987q0 -45 32.5 -75.5t92.5 -30.5q79 0 127.5 67t48.5 148v18h-27q-274 0 -274 -127z" />
<glyph unicode="&#xab;" horiz-adv-x="1079" d="M100 578l336 421h152l-336 -421l336 -420h-152zM469 578l336 421h151l-335 -421l335 -420h-151z" />
<glyph unicode="&#xac;" horiz-adv-x="1220" d="M119 700v119h954v-495h-123v376h-831z" />
<glyph unicode="&#xad;" horiz-adv-x="1005" d="M213 518v127h580v-127h-580z" />
<glyph unicode="&#xae;" horiz-adv-x="1658" d="M102 721q0 152 57.5 290t154 237t230.5 157.5t281 58.5q150 0 286 -58.5t234.5 -157.5t156 -236.5t57.5 -290.5q0 -206 -98 -377.5t-266.5 -270t-369.5 -98.5q-147 0 -281 58.5t-230.5 157.5t-154 237.5t-57.5 292.5zM223 721q0 -176 79 -322t217.5 -229.5t305.5 -83.5 q171 0 312.5 83.5t222 229.5t80.5 322q0 175 -80.5 320t-222 229t-312.5 84q-167 0 -305.5 -84t-217.5 -229t-79 -320zM584 322v798h284q106 0 173 -65t67 -172q0 -84 -44.5 -140t-105.5 -71v-4q9 -10 27 -45l154 -301h-127l-160 323h-154v-323h-114zM698 735h150 q65 0 103 39.5t38 108.5q0 67 -38 104t-103 37h-150v-289z" />
<glyph unicode="&#xaf;" horiz-adv-x="1032" d="M264 1608v112h504v-112h-504z" />
<glyph unicode="&#xb0;" horiz-adv-x="776" d="M100 1178q0 117 83.5 200.5t203.5 83.5t204.5 -83.5t84.5 -200.5q0 -118 -84.5 -201.5t-204.5 -83.5t-203.5 83t-83.5 202zM221 1178q0 -71 48 -120.5t118 -49.5t118 49.5t48 120.5q0 70 -48 120t-118 50t-118 -50t-48 -120z" />
<glyph unicode="&#xb1;" horiz-adv-x="1241" d="M86 522v119h473v522h125v-522h471v-119h-471v-522h-125v522h-473zM123 -213h995v-119h-995v119z" />
<glyph unicode="&#xb2;" horiz-adv-x="856" d="M133 940q0 65 24.5 120t64 94.5t87 74.5t94.5 66t86.5 62.5t64 72t24.5 86.5q0 66 -47 111.5t-119 45.5q-31 0 -61.5 -10.5t-52 -25t-38 -29t-24.5 -24.5l-9 -11l-73 72q4 5 11 14t32.5 32t53.5 40.5t73.5 32t93.5 14.5q127 0 201.5 -73.5t74.5 -182.5q0 -61 -24 -113 t-62.5 -88t-85 -68.5t-93.5 -62.5t-86.5 -61t-65 -73t-27.5 -91h360v112h101v-211h-572q-6 45 -6 74z" />
<glyph unicode="&#xb3;" horiz-adv-x="815" d="M109 981l71 76q3 -4 8.5 -11.5t25.5 -26t43 -32.5t61.5 -25.5t80.5 -11.5q73 0 132 53t59 130q0 79 -61 125.5t-140 46.5h-65l-29 63l215 254l43 41v4q-24 -6 -57 -6h-248v-113h-103v209h549v-74l-248 -288q47 -5 90.5 -21.5t82.5 -46.5t62.5 -79.5t23.5 -112.5 q0 -120 -88.5 -204.5t-217.5 -84.5q-56 0 -106 14t-82.5 34t-56.5 39.5t-34 33.5z" />
<glyph unicode="&#xb4;" horiz-adv-x="1032" d="M332 1540l200 244h179l-232 -244h-147z" />
<glyph unicode="&#xb6;" horiz-adv-x="1169" d="M82 969q0 130 66 239t177 170.5t242 61.5h492v-127h-371v-1415h-119v596q-130 0 -242 62.5t-178.5 172.5t-66.5 240zM815 -102v1292h117v-1292h-117z" />
<glyph unicode="&#xb7;" horiz-adv-x="565" d="M201 506v170h164v-170h-164z" />
<glyph unicode="&#xb8;" horiz-adv-x="1032" d="M362 -328q40 -10 89 -10q104 0 104 72q0 36 -33 54.5t-88 18.5h-31l58 240l88 -14v-17l-29 -135q63 -6 106.5 -46.5t43.5 -100.5q0 -83 -60 -123.5t-147 -40.5q-25 0 -50.5 2.5t-38.5 5.5l-12 2v92z" />
<glyph unicode="&#xb9;" horiz-adv-x="815" d="M135 1536l225 221h107v-792h209v-99h-537v99h213v579q0 16 1.5 32t2.5 24l2 8h-4q-9 -16 -32 -39l-113 -109z" />
<glyph unicode="&#xba;" horiz-adv-x="972" d="M143 1126q0 142 100 239t242 97t242 -97t100 -239q0 -145 -100 -243.5t-242 -98.5t-242 98.5t-100 243.5zM178 541v96h621v-96h-621zM256 1126q0 -102 66.5 -169.5t162.5 -67.5t163 67.5t67 169.5q0 100 -67 167t-163 67t-162.5 -67t-66.5 -167z" />
<glyph unicode="&#xbb;" horiz-adv-x="1079" d="M123 158l336 420l-336 421h151l336 -421l-336 -420h-151zM492 158l335 420l-335 421h151l336 -421l-336 -420h-151z" />
<glyph unicode="&#xbc;" horiz-adv-x="1916" d="M117 1219l225 221h107v-793h208v-98h-536v98h213v580q0 16 1.5 32t2.5 23l2 8h-4q-10 -16 -33 -39l-113 -108zM541 0l688 1440h119l-686 -1440h-121zM1159 236v75l434 580h111v-559h133v-96h-133v-236h-113v236h-432zM1290 332h301v330q0 17 2 39t4 35l2 14h-6 q-18 -41 -43 -74l-260 -340v-4z" />
<glyph unicode="&#xbd;" horiz-adv-x="1875" d="M102 1219l226 221h106v-793h209v-98h-537v98h213v580q0 16 1.5 32t3.5 23l2 8h-4q-10 -16 -33 -39l-113 -108zM526 0l688 1440h119l-686 -1440h-121zM1200 74q0 65 24.5 120t64 94t86.5 74t94.5 66.5t87 63t64 71.5t24.5 86q0 66 -47 112t-119 46q-31 0 -61.5 -10.5 t-52 -25t-38 -29t-25.5 -24.5l-8 -11l-73 71q4 5 11 14t32.5 32t53.5 40.5t73.5 32t93.5 14.5q127 0 201.5 -73.5t74.5 -182.5q0 -61 -24 -113t-62.5 -88t-85 -68.5t-93.5 -62.5t-86.5 -61t-65 -73t-27.5 -91h360v113h101v-211h-572q-6 45 -6 74z" />
<glyph unicode="&#xbe;" horiz-adv-x="1953" d="M104 664l72 75q3 -4 8.5 -11.5t25.5 -25.5t43 -32t61.5 -25.5t80.5 -11.5q74 0 132.5 52.5t58.5 129.5q0 79 -61 125.5t-140 46.5h-66l-28 64l215 254l43 41v4q-24 -7 -57 -7h-248v-112h-103v209h549v-74l-248 -289q47 -5 90 -21.5t82 -46.5t62.5 -79.5t23.5 -112.5 q0 -120 -88 -204.5t-217 -84.5q-56 0 -106.5 14t-82.5 34t-56.5 40t-35.5 34zM571 0l689 1440h118l-686 -1440h-121zM1190 236v75l434 580h111v-559h133v-96h-133v-236h-113v236h-432zM1321 332h301v330q0 17 2 39t4 35l2 14h-6q-18 -41 -43 -74l-260 -340v-4z" />
<glyph unicode="&#xbf;" horiz-adv-x="929" d="M109 -68q0 69 20 127.5t52.5 100.5t71.5 80t78 73t71.5 71.5t52.5 84t20 102.5v82h137v-88q0 -66 -19.5 -123t-51.5 -98.5t-70 -79.5t-76 -73t-70 -71t-51.5 -82.5t-19.5 -98.5q0 -101 75.5 -168.5t194.5 -67.5q62 0 123.5 21.5t92.5 43.5l30 21l78 -102q-5 -5 -15 -13 t-42.5 -28t-68.5 -35.5t-91.5 -28t-112.5 -12.5q-178 0 -293.5 101.5t-115.5 260.5zM463 868v162h162v-162h-162z" />
<glyph unicode="&#xc0;" horiz-adv-x="1468" d="M23 0v119h147l485 1321h158l485 -1321h148v-119h-461v119h166l-137 370h-561l-136 -370h166v-119h-460zM451 1784h178l200 -244h-147zM492 610h483l-215 590q-7 21 -13 44t-8 36l-2 12h-6q-4 -45 -20 -92z" />
<glyph unicode="&#xc1;" horiz-adv-x="1468" d="M23 0v119h147l485 1321h158l485 -1321h148v-119h-461v119h166l-137 370h-561l-136 -370h166v-119h-460zM492 610h483l-215 590q-7 21 -13 44t-8 36l-2 12h-6q-4 -45 -20 -92zM635 1540l201 244h178l-232 -244h-147z" />
<glyph unicode="&#xc2;" horiz-adv-x="1468" d="M23 0v119h147l485 1321h158l485 -1321h148v-119h-461v119h166l-137 370h-561l-136 -370h166v-119h-460zM477 1540l172 244h168l170 -244h-141l-111 166h-4l-110 -166h-144zM492 610h483l-215 590q-7 21 -13 44t-8 36l-2 12h-6q-4 -45 -20 -92z" />
<glyph unicode="&#xc3;" horiz-adv-x="1468" d="M23 0v119h147l485 1321h158l485 -1321h148v-119h-461v119h166l-137 370h-561l-136 -370h166v-119h-460zM410 1546q0 240 190 240q42 0 76 -15t56 -36t41.5 -42t41.5 -36t45 -15q25 0 43 13.5t26 36t11.5 44t3.5 44.5h117q0 -118 -48.5 -179t-142.5 -61q-42 0 -76 14.5 t-56 35t-41 41.5t-41 35.5t-46 14.5q-82 0 -82 -135h-118zM492 610h483l-215 590q-7 21 -13 44t-8 36l-2 12h-6q-4 -45 -20 -92z" />
<glyph unicode="&#xc4;" horiz-adv-x="1468" d="M23 0v119h147l485 1321h158l485 -1321h148v-119h-461v119h166l-137 370h-561l-136 -370h166v-119h-460zM477 1608v176h141v-176h-141zM492 610h483l-215 590q-7 21 -13 44t-8 36l-2 12h-6q-4 -45 -20 -92zM852 1608v176h141v-176h-141z" />
<glyph unicode="&#xc5;" horiz-adv-x="1468" d="M23 0v119h147l485 1321h158l485 -1321h148v-119h-461v119h166l-137 370h-561l-136 -370h166v-119h-460zM492 610h483l-215 590q-7 21 -13 44t-8 36l-2 12h-6q-4 -45 -20 -92zM565 1663q0 72 49 117t119 45q73 0 123.5 -45t50.5 -117q0 -68 -51 -112t-123 -44 q-69 0 -118.5 44t-49.5 112zM662 1663q0 -33 19.5 -53.5t51.5 -20.5q35 0 56.5 20.5t21.5 53.5q0 37 -21.5 58.5t-56.5 21.5q-32 0 -51.5 -21.5t-19.5 -58.5z" />
<glyph unicode="&#xc6;" horiz-adv-x="1888" d="M23 0v119h135l495 1202h-164v119h1246v-299h-125v176h-557v-531h540v-122h-540v-541h594v178h127v-301h-1045v119h180v547h-379l-225 -547h162v-119h-444zM578 784h331v533h-114z" />
<glyph unicode="&#xc7;" horiz-adv-x="1519" d="M111 729q0 207 96 375.5t263 264t370 95.5q74 0 158.5 -14.5t173 -45t146.5 -89.5t58 -137v-154h-137v115q0 50 -40 89.5t-102 61.5t-127 33.5t-124 11.5q-251 0 -418.5 -171t-167.5 -431q0 -177 76.5 -321t213 -226t304.5 -82q51 0 114.5 10t132.5 31t115 62t46 94v113 h137v-154q0 -58 -36 -107t-92.5 -80.5t-129 -54t-141 -32.5t-132.5 -11l-20 -94q65 -6 108 -46.5t43 -100.5q0 -83 -59.5 -123.5t-146.5 -40.5q-26 0 -51.5 2.5t-37.5 5.5l-12 2v92q39 -10 88 -10q105 0 105 72q0 36 -33 54.5t-88 18.5h-31l41 173q-192 17 -344 120.5 t-235.5 268t-83.5 360.5z" />
<glyph unicode="&#xc8;" horiz-adv-x="1282" d="M111 0v119h188v1202h-188v119h1017v-299h-131v176h-555v-531h545v-122h-545v-541h594v186h129v-309h-1054zM375 1784h178l201 -244h-148z" />
<glyph unicode="&#xc9;" horiz-adv-x="1282" d="M111 0v119h188v1202h-188v119h1017v-299h-131v176h-555v-531h545v-122h-545v-541h594v186h129v-309h-1054zM557 1540l201 244h178l-231 -244h-148z" />
<glyph unicode="&#xca;" horiz-adv-x="1282" d="M111 0v119h188v1202h-188v119h1017v-299h-131v176h-555v-531h545v-122h-545v-541h594v186h129v-309h-1054zM399 1540l172 244h168l170 -244h-141l-111 166h-4l-110 -166h-144z" />
<glyph unicode="&#xcb;" horiz-adv-x="1282" d="M111 0v119h188v1202h-188v119h1017v-299h-131v176h-555v-531h545v-122h-545v-541h594v186h129v-309h-1054zM399 1608v176h142v-176h-142zM774 1608v176h141v-176h-141z" />
<glyph unicode="&#xcc;" horiz-adv-x="741" d="M90 1784h178l201 -244h-147zM111 0v119h188v1202h-188v119h520v-119h-189v-1202h189v-119h-520z" />
<glyph unicode="&#xcd;" horiz-adv-x="741" d="M111 0v119h188v1202h-188v119h520v-119h-189v-1202h189v-119h-520zM272 1540l201 244h178l-231 -244h-148z" />
<glyph unicode="&#xce;" horiz-adv-x="741" d="M111 0v119h188v1202h-188v119h520v-119h-189v-1202h189v-119h-520zM115 1540l172 244h168l170 -244h-142l-110 166h-4l-111 -166h-143z" />
<glyph unicode="&#xcf;" horiz-adv-x="741" d="M111 0v119h188v1202h-188v119h520v-119h-189v-1202h189v-119h-520zM115 1608v176h141v-176h-141zM489 1608v176h142v-176h-142z" />
<glyph unicode="&#xd0;" horiz-adv-x="1607" d="M111 0v119h188v543h-160v122h160v537h-188v119h655q216 0 378.5 -84t253.5 -247.5t91 -387.5q0 -339 -197 -530t-526 -191h-655zM442 123h310q270 0 428.5 156t158.5 442q0 284 -159 440t-428 156h-310v-533h349v-122h-349v-539z" />
<glyph unicode="&#xd1;" horiz-adv-x="1705" d="M111 0v119h188v1202h-188v119h327l807 -1137q9 -15 19.5 -37t17.5 -36l6 -15h4q-1 7 -2 18t-3 38t-1 44v1006h-190v119h522v-119h-188v-1321h-140l-807 1137q-9 15 -19.5 37t-17.5 36l-6 15h-4q1 -7 2 -18.5t3 -38t1 -42.5v-1007h191v-119h-522zM539 1546q0 240 190 240 q42 0 76 -15t56 -36t41.5 -42t41.5 -36t45 -15q25 0 43 13.5t26 36t11.5 44t3.5 44.5h117q0 -118 -48.5 -179t-142.5 -61q-42 0 -76 14.5t-56 35t-41 41.5t-41 35.5t-46 14.5q-82 0 -82 -135h-118z" />
<glyph unicode="&#xd2;" horiz-adv-x="1689" d="M111 729q0 152 57.5 289t155.5 234.5t233.5 154.5t286.5 57t287 -57t234.5 -154.5t156 -234t57.5 -289.5q0 -156 -57.5 -295.5t-155.5 -240t-234.5 -159.5t-287.5 -59q-150 0 -286 59t-234 159.5t-155.5 240.5t-57.5 295zM260 729q0 -173 78.5 -316.5t212.5 -225 t293 -81.5q120 0 228 48.5t186.5 131t125 198t46.5 245.5q0 169 -78.5 308t-213 217.5t-294.5 78.5q-159 0 -293 -78.5t-212.5 -217.5t-78.5 -308zM563 1784h178l201 -244h-147z" />
<glyph unicode="&#xd3;" horiz-adv-x="1689" d="M111 729q0 152 57.5 289t155.5 234.5t233.5 154.5t286.5 57t287 -57t234.5 -154.5t156 -234t57.5 -289.5q0 -156 -57.5 -295.5t-155.5 -240t-234.5 -159.5t-287.5 -59q-150 0 -286 59t-234 159.5t-155.5 240.5t-57.5 295zM260 729q0 -173 78.5 -316.5t212.5 -225 t293 -81.5q120 0 228 48.5t186.5 131t125 198t46.5 245.5q0 169 -78.5 308t-213 217.5t-294.5 78.5q-159 0 -293 -78.5t-212.5 -217.5t-78.5 -308zM745 1540l201 244h178l-231 -244h-148z" />
<glyph unicode="&#xd4;" horiz-adv-x="1689" d="M111 729q0 152 57.5 289t155.5 234.5t233.5 154.5t286.5 57t287 -57t234.5 -154.5t156 -234t57.5 -289.5q0 -156 -57.5 -295.5t-155.5 -240t-234.5 -159.5t-287.5 -59q-150 0 -286 59t-234 159.5t-155.5 240.5t-57.5 295zM260 729q0 -173 78.5 -316.5t212.5 -225 t293 -81.5q120 0 228 48.5t186.5 131t125 198t46.5 245.5q0 169 -78.5 308t-213 217.5t-294.5 78.5q-159 0 -293 -78.5t-212.5 -217.5t-78.5 -308zM590 1540l172 244h168l170 -244h-142l-110 166h-4l-111 -166h-143z" />
<glyph unicode="&#xd5;" horiz-adv-x="1689" d="M111 729q0 152 57.5 289t155.5 234.5t233.5 154.5t286.5 57t287 -57t234.5 -154.5t156 -234t57.5 -289.5q0 -156 -57.5 -295.5t-155.5 -240t-234.5 -159.5t-287.5 -59q-150 0 -286 59t-234 159.5t-155.5 240.5t-57.5 295zM260 729q0 -173 78.5 -316.5t212.5 -225 t293 -81.5q120 0 228 48.5t186.5 131t125 198t46.5 245.5q0 169 -78.5 308t-213 217.5t-294.5 78.5q-159 0 -293 -78.5t-212.5 -217.5t-78.5 -308zM520 1546q0 118 48.5 179t142.5 61q42 0 76 -15t56 -36t41.5 -42t41.5 -36t45 -15q25 0 43 13.5t26 36t11.5 44t3.5 44.5h116 q0 -240 -190 -240q-42 0 -76 14.5t-56 35t-41 41.5t-41 35.5t-46 14.5q-82 0 -82 -135h-119z" />
<glyph unicode="&#xd6;" horiz-adv-x="1689" d="M111 729q0 152 57.5 289t155.5 234.5t233.5 154.5t286.5 57t287 -57t234.5 -154.5t156 -234t57.5 -289.5q0 -156 -57.5 -295.5t-155.5 -240t-234.5 -159.5t-287.5 -59q-150 0 -286 59t-234 159.5t-155.5 240.5t-57.5 295zM260 729q0 -173 78.5 -316.5t212.5 -225 t293 -81.5q120 0 228 48.5t186.5 131t125 198t46.5 245.5q0 169 -78.5 308t-213 217.5t-294.5 78.5q-159 0 -293 -78.5t-212.5 -217.5t-78.5 -308zM588 1608v176h141v-176h-141zM963 1608v176h141v-176h-141z" />
<glyph unicode="&#xd7;" horiz-adv-x="1241" d="M98 84l441 498l-441 497l84 84l439 -493l438 493l84 -84l-445 -497l445 -498l-84 -84l-438 494l-439 -494z" />
<glyph unicode="&#xd8;" horiz-adv-x="1687" d="M111 729q0 152 57.5 289t155.5 234.5t233.5 154.5t286.5 57q209 0 387 -110l96 137l86 -61l-98 -136q124 -101 193 -247.5t69 -317.5q0 -155 -57.5 -295t-155.5 -240.5t-234 -159.5t-286 -59q-215 0 -391 115l-101 -139l-86 59l103 142q-121 105 -189.5 254.5 t-68.5 322.5zM258 729q0 -137 52 -256.5t143 -204.5l698 975q-139 88 -307 88q-160 0 -294.5 -78.5t-213 -217t-78.5 -306.5zM530 201q140 -92 314 -92q161 0 295.5 81t212.5 223.5t78 315.5q0 135 -52 252t-145 201z" />
<glyph unicode="&#xd9;" horiz-adv-x="1617" d="M68 1321v119h520v-119h-189v-789q0 -163 64 -264q51 -78 140 -120t206 -42t208 43.5t138 124.5q64 109 64 263v784h-189v119h520v-119h-188v-791q0 -206 -92 -340q-70 -104 -190.5 -159.5t-270.5 -55.5q-151 0 -273.5 57t-191.5 161q-88 130 -88 337v791h-188zM526 1784 h179l200 -244h-147z" />
<glyph unicode="&#xda;" horiz-adv-x="1617" d="M68 1321v119h520v-119h-189v-789q0 -163 64 -264q51 -78 140 -120t206 -42t208 43.5t138 124.5q64 109 64 263v784h-189v119h520v-119h-188v-791q0 -206 -92 -340q-70 -104 -190.5 -159.5t-270.5 -55.5q-151 0 -273.5 57t-191.5 161q-88 130 -88 337v791h-188zM709 1540 l200 244h178l-231 -244h-147z" />
<glyph unicode="&#xdb;" horiz-adv-x="1617" d="M68 1321v119h520v-119h-189v-789q0 -163 64 -264q51 -78 140 -120t206 -42t208 43.5t138 124.5q64 109 64 263v784h-189v119h520v-119h-188v-791q0 -206 -92 -340q-70 -104 -190.5 -159.5t-270.5 -55.5q-151 0 -273.5 57t-191.5 161q-88 130 -88 337v791h-188zM553 1540 l172 244h168l170 -244h-141l-111 166h-4l-111 -166h-143z" />
<glyph unicode="&#xdc;" horiz-adv-x="1617" d="M68 1321v119h520v-119h-189v-789q0 -163 64 -264q51 -78 140 -120t206 -42t208 43.5t138 124.5q64 109 64 263v784h-189v119h520v-119h-188v-791q0 -206 -92 -340q-70 -104 -190.5 -159.5t-270.5 -55.5q-151 0 -273.5 57t-191.5 161q-88 130 -88 337v791h-188zM551 1608 v176h141v-176h-141zM926 1608v176h141v-176h-141z" />
<glyph unicode="&#xdd;" horiz-adv-x="1318" d="M23 1321v119h454v-119h-160l312 -524l28 -56h5q12 29 28 56l314 524h-160v119h452v-119h-141l-424 -703v-499h189v-119h-521v119h189v499l-424 703h-141zM563 1540l201 244h178l-231 -244h-148z" />
<glyph unicode="&#xde;" horiz-adv-x="1316" d="M111 0v119h188v1202h-188v119h520v-119h-189v-166h363q196 0 317 -109.5t121 -297.5q0 -187 -121.5 -299.5t-318.5 -112.5h-361v-217h189v-119h-520zM442 455h340q146 0 230 77.5t84 215.5t-83.5 213t-228.5 75h-342v-581z" />
<glyph unicode="&#xdf;" horiz-adv-x="1239" d="M61 0v115h175v972q0 89 35 162t93.5 119t131.5 71t151 25q160 0 259.5 -90t99.5 -215q0 -58 -23.5 -109.5t-57 -87.5t-67 -68.5t-57 -67.5t-23.5 -70q0 -28 22 -56t57.5 -54t78.5 -54t86 -60.5t78.5 -68.5t57.5 -83.5t22 -100.5q0 -94 -48.5 -162.5t-122 -99.5 t-161.5 -31q-87 0 -162.5 16.5t-107.5 32.5l-33 16v133q5 -3 14 -8t39.5 -17.5t62.5 -22t80.5 -17.5t96.5 -8q85 0 141.5 43t56.5 129q0 53 -41.5 101t-100 86t-117.5 77.5t-100.5 92t-41.5 112.5q0 49 23.5 93.5t56.5 79t66.5 68.5t57 76t23.5 88q0 71 -58 126.5t-161 55.5 q-107 0 -187.5 -70.5t-80.5 -191.5v-1077h-314z" />
<glyph unicode="&#xe0;" d="M78 283q0 69 26 124.5t65.5 91t98.5 61.5t112 39.5t120 21t108 9t90 1.5h68v43q0 260 -248 260q-49 0 -97.5 -10.5t-83.5 -25t-62.5 -29t-41.5 -25.5l-14 -10l-65 104q6 5 16.5 13t47 28t77 35.5t103.5 28t128 12.5q187 0 283 -98t96 -289v-508q0 -45 45 -45h113v-115 h-168q-65 0 -94 28t-29 85v18q0 22 1.5 42t2.5 29l2 9h-4q-2 -5 -5.5 -13.5t-18 -33t-32 -47t-47.5 -49.5t-64 -46.5t-82.5 -33t-102.5 -13.5q-65 0 -125 19t-109.5 55.5t-79.5 97t-30 136.5zM221 297q0 -85 59.5 -146t161.5 -61q75 0 137.5 35t102.5 91t62 124t22 137v49 h-59q-486 0 -486 -229zM248 1440h178l201 -244h-148z" />
<glyph unicode="&#xe1;" d="M78 283q0 69 26 124.5t65.5 91t98.5 61.5t112 39.5t120 21t108 9t90 1.5h68v43q0 260 -248 260q-49 0 -97.5 -10.5t-83.5 -25t-62.5 -29t-41.5 -25.5l-14 -10l-65 104q6 5 16.5 13t47 28t77 35.5t103.5 28t128 12.5q187 0 283 -98t96 -289v-508q0 -45 45 -45h113v-115 h-168q-65 0 -94 28t-29 85v18q0 22 1.5 42t2.5 29l2 9h-4q-2 -5 -5.5 -13.5t-18 -33t-32 -47t-47.5 -49.5t-64 -46.5t-82.5 -33t-102.5 -13.5q-65 0 -125 19t-109.5 55.5t-79.5 97t-30 136.5zM221 297q0 -85 59.5 -146t161.5 -61q75 0 137.5 35t102.5 91t62 124t22 137v49 h-59q-486 0 -486 -229zM430 1196l201 244h178l-231 -244h-148z" />
<glyph unicode="&#xe2;" d="M78 283q0 69 26 124.5t65.5 91t98.5 61.5t112 39.5t120 21t108 9t90 1.5h68v43q0 260 -248 260q-49 0 -97.5 -10.5t-83.5 -25t-62.5 -29t-41.5 -25.5l-14 -10l-65 104q6 5 16.5 13t47 28t77 35.5t103.5 28t128 12.5q187 0 283 -98t96 -289v-508q0 -45 45 -45h113v-115 h-168q-65 0 -94 28t-29 85v18q0 22 1.5 42t2.5 29l2 9h-4q-2 -5 -5.5 -13.5t-18 -33t-32 -47t-47.5 -49.5t-64 -46.5t-82.5 -33t-102.5 -13.5q-65 0 -125 19t-109.5 55.5t-79.5 97t-30 136.5zM221 297q0 -85 59.5 -146t161.5 -61q75 0 137.5 35t102.5 91t62 124t22 137v49 h-59q-486 0 -486 -229zM272 1196l172 244h168l170 -244h-141l-111 166h-4l-110 -166h-144z" />
<glyph unicode="&#xe3;" d="M78 283q0 69 26 124.5t65.5 91t98.5 61.5t112 39.5t120 21t108 9t90 1.5h68v43q0 260 -248 260q-49 0 -97.5 -10.5t-83.5 -25t-62.5 -29t-41.5 -25.5l-14 -10l-65 104q6 5 16.5 13t47 28t77 35.5t103.5 28t128 12.5q187 0 283 -98t96 -289v-508q0 -45 45 -45h113v-115 h-168q-65 0 -94 28t-29 85v18q0 22 1.5 42t2.5 29l2 9h-4q-2 -5 -5.5 -13.5t-18 -33t-32 -47t-47.5 -49.5t-64 -46.5t-82.5 -33t-102.5 -13.5q-65 0 -125 19t-109.5 55.5t-79.5 97t-30 136.5zM203 1202q0 240 190 240q42 0 76 -15t56 -36t41.5 -42t41.5 -36t45 -15 q25 0 43 13.5t26 36t11.5 44t3.5 44.5h117q0 -240 -190 -240q-42 0 -76 14.5t-56 35t-41.5 41.5t-41.5 35.5t-46 14.5q-81 0 -81 -135h-119zM221 297q0 -85 59.5 -146t161.5 -61q75 0 137.5 35t102.5 91t62 124t22 137v49h-59q-486 0 -486 -229z" />
<glyph unicode="&#xe4;" d="M78 283q0 69 26 124.5t65.5 91t98.5 61.5t112 39.5t120 21t108 9t90 1.5h68v43q0 260 -248 260q-49 0 -97.5 -10.5t-83.5 -25t-62.5 -29t-41.5 -25.5l-14 -10l-65 104q6 5 16.5 13t47 28t77 35.5t103.5 28t128 12.5q187 0 283 -98t96 -289v-508q0 -45 45 -45h113v-115 h-168q-65 0 -94 28t-29 85v18q0 22 1.5 42t2.5 29l2 9h-4q-2 -5 -5.5 -13.5t-18 -33t-32 -47t-47.5 -49.5t-64 -46.5t-82.5 -33t-102.5 -13.5q-65 0 -125 19t-109.5 55.5t-79.5 97t-30 136.5zM221 297q0 -85 59.5 -146t161.5 -61q75 0 137.5 35t102.5 91t62 124t22 137v49 h-59q-486 0 -486 -229zM270 1264v176h142v-176h-142zM645 1264v176h141v-176h-141z" />
<glyph unicode="&#xe5;" d="M78 283q0 69 26 124.5t65.5 91t98.5 61.5t112 39.5t120 21t108 9t90 1.5h68v43q0 260 -248 260q-49 0 -97.5 -10.5t-83.5 -25t-62.5 -29t-41.5 -25.5l-14 -10l-65 104q6 5 16.5 13t47 28t77 35.5t103.5 28t128 12.5q187 0 283 -98t96 -289v-508q0 -45 45 -45h113v-115 h-168q-65 0 -94 28t-29 85v18q0 22 1.5 42t2.5 29l2 9h-4q-2 -5 -5.5 -13.5t-18 -33t-32 -47t-47.5 -49.5t-64 -46.5t-82.5 -33t-102.5 -13.5q-65 0 -125 19t-109.5 55.5t-79.5 97t-30 136.5zM221 297q0 -85 59.5 -146t161.5 -61q75 0 137.5 35t102.5 91t62 124t22 137v49 h-59q-486 0 -486 -229zM360 1319q0 72 49 117t119 45q73 0 123.5 -45t50.5 -117q0 -68 -51 -112t-123 -44q-69 0 -118.5 44t-49.5 112zM457 1319q0 -33 19.5 -53.5t51.5 -20.5q35 0 56.5 20.5t21.5 53.5q0 37 -21.5 58.5t-56.5 21.5q-32 0 -51.5 -21.5t-19.5 -58.5z" />
<glyph unicode="&#xe6;" horiz-adv-x="1777" d="M80 281q0 54 14 99t36.5 77.5t58.5 58.5t71.5 43.5t84 29.5t88.5 18.5t92.5 10t88 4.5t82.5 1h70v41q0 270 -260 270q-48 0 -95.5 -10.5t-81.5 -25t-61.5 -29t-41.5 -25.5l-13 -10l-63 104q6 5 16 13t46 28t75.5 35.5t101.5 28t127 12.5q275 0 346 -213h4q61 105 161 159 t226 54q201 0 314.5 -134t113.5 -335l-4 -66h-774q3 -200 109.5 -311t273.5 -111q53 0 104 13t87 31t64 36.5t42 31.5l14 13l66 -104q-6 -6 -17.5 -15.5t-50 -34.5t-80 -44t-106 -34.5t-129.5 -15.5q-157 0 -275.5 76t-177.5 211h-4q-7 -22 -20 -50.5t-45 -72.5t-73 -78.5 t-107.5 -60t-143.5 -25.5q-149 0 -251.5 81.5t-102.5 224.5zM221 289q0 -81 61.5 -139t168.5 -58q72 0 133 34.5t100.5 90.5t61.5 124t22 136v41h-121q-43 0 -78.5 -1.5t-81.5 -7t-81.5 -15t-71.5 -27t-59.5 -41t-38.5 -58.5t-15 -79zM911 623h627q-6 152 -89.5 232.5 t-201.5 80.5q-131 0 -221.5 -80.5t-114.5 -232.5z" />
<glyph unicode="&#xe7;" horiz-adv-x="1126" d="M94 512q0 118 42.5 220t115.5 172.5t172 110.5t209 40q54 0 115 -11.5t123 -36t102.5 -70.5t40.5 -106v-112h-129v76q0 43 -44 75t-99.5 46t-106.5 14q-171 0 -284 -114.5t-113 -299.5q0 -187 116 -301.5t287 -114.5q41 0 80.5 7t71.5 19t59.5 25.5t50 29t36.5 27 t26.5 22.5t13.5 12l59 -107q-70 -61 -132 -93q-118 -62 -251 -67l-20 -94q63 -6 106 -46.5t43 -100.5q0 -83 -58.5 -123.5t-145.5 -40.5q-26 0 -51.5 2.5t-37.5 5.5l-12 2v92q37 -10 86 -10q105 0 105 72q0 36 -33 54.5t-88 18.5h-29l41 175q-201 24 -334 168t-133 362z" />
<glyph unicode="&#xe8;" horiz-adv-x="1130" d="M96 514q0 124 40 227t109.5 171t161.5 105.5t197 37.5q138 0 237.5 -66t147 -172t47.5 -237l-6 -66h-790q3 -128 58.5 -223.5t144 -143t196.5 -47.5q53 0 104.5 12.5t87.5 31t64.5 36.5t42.5 30l14 13l64 -104q-6 -6 -17.5 -15.5t-49.5 -34.5t-79.5 -44t-105.5 -34.5 t-129 -15.5q-232 0 -385.5 151.5t-153.5 387.5zM246 616h645q-6 156 -88 239t-203 83q-134 0 -232 -85t-122 -237zM324 1440h178l200 -244h-147z" />
<glyph unicode="&#xe9;" horiz-adv-x="1130" d="M96 514q0 124 40 227t109.5 171t161.5 105.5t197 37.5q138 0 237.5 -66t147 -172t47.5 -237l-6 -66h-790q3 -128 58.5 -223.5t144 -143t196.5 -47.5q53 0 104.5 12.5t87.5 31t64.5 36.5t42.5 30l14 13l64 -104q-6 -6 -17.5 -15.5t-49.5 -34.5t-79.5 -44t-105.5 -34.5 t-129 -15.5q-232 0 -385.5 151.5t-153.5 387.5zM246 616h645q-6 156 -88 239t-203 83q-134 0 -232 -85t-122 -237zM506 1196l201 244h178l-232 -244h-147z" />
<glyph unicode="&#xea;" horiz-adv-x="1130" d="M96 514q0 124 40 227t109.5 171t161.5 105.5t197 37.5q138 0 237.5 -66t147 -172t47.5 -237l-6 -66h-790q3 -128 58.5 -223.5t144 -143t196.5 -47.5q53 0 104.5 12.5t87.5 31t64.5 36.5t42.5 30l14 13l64 -104q-6 -6 -17.5 -15.5t-49.5 -34.5t-79.5 -44t-105.5 -34.5 t-129 -15.5q-232 0 -385.5 151.5t-153.5 387.5zM246 616h645q-6 156 -88 239t-203 83q-134 0 -232 -85t-122 -237zM350 1196l172 244h168l170 -244h-141l-111 166h-4l-110 -166h-144z" />
<glyph unicode="&#xeb;" horiz-adv-x="1130" d="M96 514q0 124 40 227t109.5 171t161.5 105.5t197 37.5q138 0 237.5 -66t147 -172t47.5 -237l-6 -66h-790q3 -128 58.5 -223.5t144 -143t196.5 -47.5q53 0 104.5 12.5t87.5 31t64.5 36.5t42.5 30l14 13l64 -104q-6 -6 -17.5 -15.5t-49.5 -34.5t-79.5 -44t-105.5 -34.5 t-129 -15.5q-232 0 -385.5 151.5t-153.5 387.5zM246 616h645q-6 156 -88 239t-203 83q-134 0 -232 -85t-122 -237zM348 1264v176h141v-176h-141zM723 1264v176h141v-176h-141z" />
<glyph unicode="&#xec;" horiz-adv-x="622" d="M41 1440h178l201 -244h-148zM94 915v115h299v-915h158v-115h-455v115h158v800h-160z" />
<glyph unicode="&#xed;" horiz-adv-x="622" d="M94 915v115h299v-915h158v-115h-455v115h158v800h-160zM223 1196l201 244h178l-231 -244h-148z" />
<glyph unicode="&#xee;" horiz-adv-x="622" d="M68 1196l172 244h168l170 -244h-142l-110 166h-4l-111 -166h-143zM94 915v115h299v-915h158v-115h-455v115h158v800h-160z" />
<glyph unicode="&#xef;" horiz-adv-x="622" d="M82 1264v176h141v-176h-141zM94 915v115h299v-915h158v-115h-455v115h158v800h-160zM406 1264v176h141v-176h-141z" />
<glyph unicode="&#xf0;" horiz-adv-x="1202" d="M98 475q0 74 19.5 143.5t60 131t97.5 107.5t138 72.5t175 26.5q55 0 106 -11.5t83.5 -27.5t57.5 -32t37 -27l11 -12h4q-69 198 -256 328l-359 -162l-28 90l282 129q-128 67 -295 108l39 119q241 -60 410 -162l262 121l27 -90l-201 -92q141 -113 225 -283.5t84 -392.5 q0 -85 -18 -166.5t-58 -157.5t-97.5 -133.5t-143.5 -92t-189 -34.5q-110 0 -201 42.5t-149.5 113t-90.5 159.5t-32 185zM242 473q0 -97 37.5 -180.5t115 -138t180.5 -54.5q90 0 162 39.5t114 103.5t63.5 138t21.5 151q0 134 -92.5 220t-243.5 86q-89 0 -159 -31 t-112.5 -83.5t-64.5 -116.5t-22 -134z" />
<glyph unicode="&#xf1;" horiz-adv-x="1380" d="M84 915v115h197q64 0 94.5 -28t30.5 -87v-59q0 -18 -2 -36.5t-4 -27.5l-3 -10h4q10 27 29.5 58.5t56.5 71t82.5 70.5t112 52t139.5 21q184 0 263 -100.5t79 -299.5v-540h174v-115h-313v618q0 55 -4 95t-18 82t-38 68.5t-65.5 43.5t-99.5 17q-110 0 -201 -59.5 t-140.5 -157.5t-49.5 -211v-381h174v-115h-488v115h174v755q0 45 -45 45h-139zM412 1202q0 240 190 240q42 0 76 -15t56 -36t41.5 -42t41.5 -36t45 -15q25 0 43 13.5t26 36t11.5 44t3.5 44.5h117q0 -118 -48.5 -179t-142.5 -61q-42 0 -76 14.5t-56 35t-41 41.5t-41 35.5 t-46 14.5q-82 0 -82 -135h-118z" />
<glyph unicode="&#xf2;" horiz-adv-x="1271" d="M92 520q0 149 73 272.5t197.5 193t272.5 69.5q149 0 274 -69.5t198 -192.5t73 -273q0 -114 -43 -216t-116.5 -173.5t-174 -113.5t-211.5 -42t-211 42t-173 113.5t-116 173.5t-43 216zM236 520q0 -178 116.5 -299t282.5 -121q167 0 284 120.5t117 299.5q0 174 -117 292 t-284 118q-166 0 -282.5 -118.5t-116.5 -291.5zM354 1440h178l201 -244h-147z" />
<glyph unicode="&#xf3;" horiz-adv-x="1271" d="M92 520q0 149 73 272.5t197.5 193t272.5 69.5q149 0 274 -69.5t198 -192.5t73 -273q0 -114 -43 -216t-116.5 -173.5t-174 -113.5t-211.5 -42t-211 42t-173 113.5t-116 173.5t-43 216zM236 520q0 -178 116.5 -299t282.5 -121q167 0 284 120.5t117 299.5q0 174 -117 292 t-284 118q-166 0 -282.5 -118.5t-116.5 -291.5zM537 1196l200 244h178l-231 -244h-147z" />
<glyph unicode="&#xf4;" horiz-adv-x="1271" d="M92 520q0 149 73 272.5t197.5 193t272.5 69.5q149 0 274 -69.5t198 -192.5t73 -273q0 -114 -43 -216t-116.5 -173.5t-174 -113.5t-211.5 -42t-211 42t-173 113.5t-116 173.5t-43 216zM236 520q0 -178 116.5 -299t282.5 -121q167 0 284 120.5t117 299.5q0 174 -117 292 t-284 118q-166 0 -282.5 -118.5t-116.5 -291.5zM381 1196l172 244h168l170 -244h-141l-111 166h-4l-111 -166h-143z" />
<glyph unicode="&#xf5;" horiz-adv-x="1271" d="M92 520q0 149 73 272.5t197.5 193t272.5 69.5q149 0 274 -69.5t198 -192.5t73 -273q0 -114 -43 -216t-116.5 -173.5t-174 -113.5t-211.5 -42t-211 42t-173 113.5t-116 173.5t-43 216zM236 520q0 -178 116.5 -299t282.5 -121q167 0 284 120.5t117 299.5q0 174 -117 292 t-284 118q-166 0 -282.5 -118.5t-116.5 -291.5zM311 1202q0 118 48.5 179t142.5 61q42 0 76 -15t56 -36t41.5 -42t41.5 -36t45 -15q25 0 43 13.5t26 36t11.5 44t3.5 44.5h117q0 -118 -48.5 -179t-142.5 -61q-42 0 -76 14.5t-56 35t-41 41.5t-41 35.5t-46 14.5 q-82 0 -82 -135h-119z" />
<glyph unicode="&#xf6;" horiz-adv-x="1271" d="M92 520q0 149 73 272.5t197.5 193t272.5 69.5q149 0 274 -69.5t198 -192.5t73 -273q0 -114 -43 -216t-116.5 -173.5t-174 -113.5t-211.5 -42t-211 42t-173 113.5t-116 173.5t-43 216zM236 520q0 -178 116.5 -299t282.5 -121q167 0 284 120.5t117 299.5q0 174 -117 292 t-284 118q-166 0 -282.5 -118.5t-116.5 -291.5zM379 1264v176h141v-176h-141zM754 1264v176h141v-176h-141z" />
<glyph unicode="&#xf7;" horiz-adv-x="1241" d="M119 522v119h1003v-119h-1003zM543 125v151h153v-151h-153zM543 887v151h153v-151h-153z" />
<glyph unicode="&#xf8;" horiz-adv-x="1271" d="M92 520q0 149 73 272.5t197.5 193t272.5 69.5q154 0 285 -78l79 110l74 -53l-78 -110q85 -74 135 -179.5t50 -224.5q0 -114 -43 -216t-116 -173.5t-173 -113.5t-211 -42q-146 0 -268 72l-80 -110l-74 55l76 104q-93 75 -146 185.5t-53 238.5zM236 520q0 -183 133 -313 l475 663q-101 60 -207 60q-167 0 -284 -118t-117 -292zM444 154q96 -54 193 -54q166 0 282.5 121t116.5 299q0 84 -33 159.5t-90 131.5z" />
<glyph unicode="&#xf9;" horiz-adv-x="1333" d="M35 915v115h323v-620q0 -55 4 -95t18 -82t37.5 -68.5t66 -43.5t100.5 -17q111 0 199.5 63t134 162t45.5 212v374h-185v115h324v-872q0 -45 45 -45h117v-113h-174q-64 0 -93.5 28t-29.5 87v51l2 74h-4q-9 -26 -28 -57.5t-54.5 -69t-79.5 -67.5t-109 -50.5t-137 -20.5 q-176 0 -257 98t-81 302v540h-184zM356 1440h179l200 -244h-147z" />
<glyph unicode="&#xfa;" horiz-adv-x="1333" d="M35 915v115h323v-620q0 -55 4 -95t18 -82t37.5 -68.5t66 -43.5t100.5 -17q111 0 199.5 63t134 162t45.5 212v374h-185v115h324v-872q0 -45 45 -45h117v-113h-174q-64 0 -93.5 28t-29.5 87v51l2 74h-4q-9 -26 -28 -57.5t-54.5 -69t-79.5 -67.5t-109 -50.5t-137 -20.5 q-176 0 -257 98t-81 302v540h-184zM539 1196l200 244h179l-232 -244h-147z" />
<glyph unicode="&#xfb;" horiz-adv-x="1333" d="M35 915v115h323v-620q0 -55 4 -95t18 -82t37.5 -68.5t66 -43.5t100.5 -17q111 0 199.5 63t134 162t45.5 212v374h-185v115h324v-872q0 -45 45 -45h117v-113h-174q-64 0 -93.5 28t-29.5 87v51l2 74h-4q-9 -26 -28 -57.5t-54.5 -69t-79.5 -67.5t-109 -50.5t-137 -20.5 q-176 0 -257 98t-81 302v540h-184zM381 1196l172 244h168l170 -244h-141l-111 166h-4l-111 -166h-143z" />
<glyph unicode="&#xfc;" horiz-adv-x="1333" d="M35 915v115h323v-620q0 -55 4 -95t18 -82t37.5 -68.5t66 -43.5t100.5 -17q111 0 199.5 63t134 162t45.5 212v374h-185v115h324v-872q0 -45 45 -45h117v-113h-174q-64 0 -93.5 28t-29.5 87v51l2 74h-4q-9 -26 -28 -57.5t-54.5 -69t-79.5 -67.5t-109 -50.5t-137 -20.5 q-176 0 -257 98t-81 302v540h-184zM381 1264v176h141v-176h-141zM756 1264v176h141v-176h-141z" />
<glyph unicode="&#xfd;" horiz-adv-x="1175" d="M16 915v115h433v-115h-150l270 -702l17 -74h6q6 35 20 74l271 702h-150v115h426v-115h-135l-438 -1105q-45 -112 -127.5 -176t-188.5 -64q-52 0 -100.5 15t-71.5 31l-22 15l53 111q7 -5 19 -13.5t47.5 -22t70.5 -13.5q65 0 115 45.5t82 118.5l57 137l-368 921h-136z M500 1196l200 244h179l-232 -244h-147z" />
<glyph unicode="&#xfe;" horiz-adv-x="1220" d="M8 1325v115h316v-500l-2 -84h4q3 8 10 21.5t35.5 48t64 60.5t99 47.5t137.5 21.5q206 0 328 -149.5t122 -389.5q0 -242 -128 -391.5t-330 -149.5q-71 0 -132 20.5t-98 49.5t-63 58.5t-37 50.5l-10 20h-5q5 -37 5 -90v-379h174v-115h-488v115h174v1620h-176zM319 514 q0 -173 89.5 -293.5t240.5 -120.5q142 0 236 113.5t94 302.5q0 185 -90.5 299.5t-233.5 114.5q-67 0 -126 -24t-107 -72.5t-75.5 -130.5t-27.5 -189z" />
<glyph unicode="&#xff;" horiz-adv-x="1175" d="M16 915v115h433v-115h-150l270 -702l17 -74h6q6 35 20 74l271 702h-150v115h426v-115h-135l-438 -1105q-45 -112 -127.5 -176t-188.5 -64q-52 0 -100.5 15t-71.5 31l-22 15l53 111q7 -5 19 -13.5t47.5 -22t70.5 -13.5q65 0 115 45.5t82 118.5l57 137l-368 921h-136z M342 1264v176h141v-176h-141zM717 1264v176h141v-176h-141z" />
<glyph unicode="&#x152;" horiz-adv-x="1970" d="M113 721q0 153 55.5 289.5t152 235.5t233.5 156.5t294 57.5q44 0 128.5 -10t115.5 -10h727v-299h-127v176h-557v-531h540v-122h-540v-541h596v178h124v-301h-761q-29 0 -115 -10t-131 -10q-157 0 -294 57.5t-233.5 156t-152 235.5t-55.5 292zM260 721q0 -129 43 -242.5 t119.5 -195.5t186.5 -129.5t239 -47.5q35 0 70.5 4t53.5 8l19 5v1194q-65 16 -143 16q-129 0 -239.5 -47.5t-186.5 -129.5t-119 -194.5t-43 -240.5z" />
<glyph unicode="&#x153;" horiz-adv-x="2070" d="M94 512q0 160 74 285t196 191.5t269 66.5q154 0 277 -74t188 -203h4q62 132 177.5 204.5t264.5 72.5q138 0 237.5 -66t147 -172t47.5 -237l-6 -68h-788q5 -131 61.5 -226.5t144 -141.5t193.5 -46q52 0 103 13t87 31t64.5 36.5t42.5 31.5l14 13l64 -104q-6 -6 -17.5 -15.5 t-49.5 -34.5t-79.5 -44t-105.5 -34.5t-129 -15.5q-159 0 -283 75t-186 206h-4q-65 -132 -188.5 -206.5t-280.5 -74.5q-147 0 -269 65t-196 189t-74 283zM238 512q0 -182 115 -297t282 -115q169 0 285 116.5t116 303.5q0 182 -118 296t-283 114q-166 0 -281.5 -117 t-115.5 -301zM1188 616h645q-6 154 -88.5 238t-202.5 84q-134 0 -232 -85t-122 -237z" />
<glyph unicode="&#x178;" horiz-adv-x="1318" d="M23 1321v119h454v-119h-160l312 -524l28 -56h5q12 29 28 56l314 524h-160v119h452v-119h-141l-424 -703v-499h189v-119h-521v119h189v499l-424 703h-141zM403 1608v176h142v-176h-142zM778 1608v176h142v-176h-142z" />
<glyph unicode="&#x2c6;" horiz-adv-x="1032" d="M260 1540l172 244h168l170 -244h-141l-111 166h-4l-111 -166h-143z" />
<glyph unicode="&#x2dc;" horiz-adv-x="1032" d="M190 1546q0 118 48.5 179t142.5 61q42 0 76 -15t56 -36t41.5 -42t41.5 -36t45 -15q25 0 43 13.5t26 36t11.5 44t3.5 44.5h117q0 -118 -48.5 -179t-142.5 -61q-42 0 -76 14.5t-56 35t-41 41.5t-41 35.5t-46 14.5q-82 0 -82 -135h-119z" />
<glyph unicode="&#x2000;" horiz-adv-x="912" />
<glyph unicode="&#x2001;" horiz-adv-x="1825" />
<glyph unicode="&#x2002;" horiz-adv-x="912" />
<glyph unicode="&#x2003;" horiz-adv-x="1825" />
<glyph unicode="&#x2004;" horiz-adv-x="608" />
<glyph unicode="&#x2005;" horiz-adv-x="456" />
<glyph unicode="&#x2006;" horiz-adv-x="304" />
<glyph unicode="&#x2007;" horiz-adv-x="304" />
<glyph unicode="&#x2008;" horiz-adv-x="228" />
<glyph unicode="&#x2009;" horiz-adv-x="365" />
<glyph unicode="&#x200a;" horiz-adv-x="101" />
<glyph unicode="&#x2010;" horiz-adv-x="1005" d="M213 518v127h580v-127h-580z" />
<glyph unicode="&#x2011;" horiz-adv-x="1005" d="M213 518v127h580v-127h-580z" />
<glyph unicode="&#x2012;" horiz-adv-x="1005" d="M213 518v127h580v-127h-580z" />
<glyph unicode="&#x2013;" horiz-adv-x="1462" d="M219 522v119h1024v-119h-1024z" />
<glyph unicode="&#x2014;" horiz-adv-x="1871" d="M219 522v119h1434v-119h-1434z" />
<glyph unicode="&#x2018;" horiz-adv-x="446" d="M111 1042l133 416h110l-96 -416h-147z" />
<glyph unicode="&#x2019;" horiz-adv-x="438" d="M117 1042l96 416h147l-131 -416h-112z" />
<glyph unicode="&#x201a;" horiz-adv-x="481" d="M84 -250l96 418h146l-131 -418h-111z" />
<glyph unicode="&#x201c;" horiz-adv-x="708" d="M111 1042l133 416h110l-96 -416h-147zM373 1042l131 416h112l-96 -416h-147z" />
<glyph unicode="&#x201d;" horiz-adv-x="698" d="M117 1042l96 416h147l-131 -416h-112zM379 1042l94 416h150l-134 -416h-110z" />
<glyph unicode="&#x201e;" horiz-adv-x="739" d="M84 -250l96 418h146l-131 -418h-111zM342 -250l96 418h146l-131 -418h-111z" />
<glyph unicode="&#x2022;" horiz-adv-x="825" d="M121 596q0 122 85.5 207.5t207.5 85.5q121 0 206 -85.5t85 -207.5t-85 -207.5t-206 -85.5q-122 0 -207.5 85.5t-85.5 207.5z" />
<glyph unicode="&#x2026;" horiz-adv-x="1458" d="M166 0v170h164v-170h-164zM647 0v170h164v-170h-164zM1128 0v170h164v-170h-164z" />
<glyph unicode="&#x202f;" horiz-adv-x="365" />
<glyph unicode="&#x2039;" horiz-adv-x="710" d="M100 578l336 421h152l-336 -421l336 -420h-152z" />
<glyph unicode="&#x203a;" horiz-adv-x="710" d="M123 158l336 420l-336 421h151l336 -421l-336 -420h-151z" />
<glyph unicode="&#x205f;" horiz-adv-x="456" />
<glyph unicode="&#x20ac;" horiz-adv-x="1220" d="M96 526v103h111q-10 118 2 207h-113v102h131q61 232 247.5 379t436.5 147q48 0 96.5 -6t72.5 -12l24 -6l-33 -129q-76 22 -162 22q-194 0 -335 -108t-195 -287h625l-21 -102h-627q-11 -97 -2 -207h592l-20 -103h-549q48 -188 192 -304t342 -116q46 0 92.5 7t69.5 15l23 7 l30 -129q-92 -31 -215 -31q-259 0 -446 153t-242 398h-127z" />
<glyph unicode="&#x2122;" horiz-adv-x="1933" d="M61 1333v107h756v-107h-319v-790h-117v790h-320zM893 543l72 897h104l238 -514l28 -84h4q11 45 29 84l236 514h104l72 -897h-115l-49 608l2 59h-4l-230 -499h-96l-229 499h-4l2 -59l-49 -608h-115z" />
<glyph unicode="&#x25fc;" horiz-adv-x="1034" d="M0 0v1034h1034v-1034h-1034z" />
</font>
</defs>
</svg>
